<svg width="20" height="17" viewBox="0 0 20 17" fill="none" xmlns="http://www.w3.org/2000/svg">
<path fill-rule="evenodd" clip-rule="evenodd" d="M2.35676 1.28602C2.57548 1.11981 2.8381 0.990865 3.12724 0.907746C3.41637 0.824626 3.72541 0.789225 4.03389 0.803887C4.34236 0.81855 4.64321 0.882942 4.91651 0.992796C5.18981 1.10265 5.42932 1.25546 5.61916 1.44109L7.86284 3.63495C8.27408 4.03738 8.41908 4.56159 8.25658 5.0563L7.57285 7.1398C7.5375 7.24772 7.53941 7.36075 7.57839 7.46794C7.61738 7.57513 7.69211 7.67282 7.79534 7.75154L10.8665 10.0891C10.97 10.1678 11.0986 10.2248 11.2397 10.2544C11.3807 10.2841 11.5295 10.2855 11.6715 10.2584L14.4076 9.738C14.7284 9.67696 15.0632 9.67221 15.3867 9.72413C15.7102 9.77605 16.014 9.88327 16.2751 10.0377L19.1575 11.7444C20.1937 12.3581 20.2887 13.5235 19.3612 14.2285L18.0688 15.2122C17.1438 15.9162 15.7613 16.2254 14.4726 15.88C11.1742 14.9967 8.17942 13.5595 5.71041 11.675C3.2346 9.79605 1.34631 7.51698 0.185583 5.00683C-0.266903 4.02692 0.139334 2.97375 1.06431 2.26974L2.35676 1.28602Z" fill="url(#paint0_linear_60_456)"/>
<defs>
<linearGradient id="paint0_linear_60_456" x1="10" y1="0.800659" x2="10" y2="16.0219" gradientUnits="userSpaceOnUse">
<stop stop-color="#FFBB00"/>
<stop offset="1" stop-color="#F2A60C"/>
</linearGradient>
</defs>
</svg>
