<svg width="20" height="20" viewBox="0 0 20 20" fill="none" xmlns="http://www.w3.org/2000/svg">
<path d="M10.0028 10.0916C10.6051 10.0916 11.1198 9.92841 11.5469 9.60194C11.974 9.27548 12.1875 8.88303 12.1875 8.42458C12.1875 7.96615 11.973 7.5744 11.5441 7.24934C11.1152 6.92427 10.5996 6.76174 9.99722 6.76174C9.39491 6.76174 8.88021 6.92498 8.45312 7.25145C8.02604 7.57791 7.8125 7.97036 7.8125 8.42881C7.8125 8.88724 8.02697 9.27899 8.45591 9.60405C8.88482 9.92911 9.40045 10.0916 10.0028 10.0916ZM10 17.9645C12.7708 16.0458 14.8177 14.3056 16.1406 12.7437C17.4635 11.1818 18.125 9.80622 18.125 8.61697C18.125 6.74922 17.3407 5.21988 15.7721 4.02896C14.2036 2.83805 12.2795 2.24259 10 2.24259C7.72048 2.24259 5.79644 2.83805 4.22787 4.02896C2.65929 5.21988 1.875 6.74922 1.875 8.61697C1.875 9.80622 2.55208 11.1818 3.90625 12.7437C5.26042 14.3056 7.29167 16.0458 10 17.9645ZM10 19.8435C6.64583 17.6711 4.14062 15.6534 2.48438 13.7902C0.828125 11.9271 0 10.2026 0 8.61697C0 6.23847 1.00521 4.3436 3.01562 2.93236C5.02604 1.52111 7.35417 0.815491 10 0.815491C12.6458 0.815491 14.974 1.52111 16.9844 2.93236C18.9948 4.3436 20 6.23847 20 8.61697C20 10.2026 19.1719 11.9271 17.5156 13.7902C15.8594 15.6534 13.3542 17.6711 10 19.8435Z" fill="url(#paint0_linear_60_457)"/>
<defs>
<linearGradient id="paint0_linear_60_457" x1="10" y1="0.815491" x2="10" y2="19.8435" gradientUnits="userSpaceOnUse">
<stop stop-color="#FFBB00"/>
<stop offset="1" stop-color="#F2A60C"/>
</linearGradient>
</defs>
</svg>
