<svg width="20" height="13" viewBox="0 0 20 13" fill="none" xmlns="http://www.w3.org/2000/svg">
<path d="M1.5 12.7166C1.1 12.7166 0.75 12.6025 0.45 12.3741C0.15 12.1458 0 11.8794 0 11.5749V1.68038C0 1.37593 0.15 1.10954 0.45 0.8812C0.75 0.652864 1.1 0.538696 1.5 0.538696H18.5C18.9 0.538696 19.25 0.652864 19.55 0.8812C19.85 1.10954 20 1.37593 20 1.68038V11.5749C20 11.8794 19.85 12.1458 19.55 12.3741C19.25 12.6025 18.9 12.7166 18.5 12.7166H1.5ZM10 6.97016L1.5 2.72692V11.5749H18.5V2.72692L10 6.97016ZM10 5.82848L18.4 1.68038H1.625L10 5.82848ZM1.5 2.72692V1.68038V11.5749V2.72692Z" fill="url(#paint0_linear_60_444)"/>
<defs>
<linearGradient id="paint0_linear_60_444" x1="10" y1="0.538696" x2="10" y2="12.7166" gradientUnits="userSpaceOnUse">
<stop stop-color="#FFBB00"/>
<stop offset="1" stop-color="#F2A60C"/>
</linearGradient>
</defs>
</svg>
