<svg width="48" height="31" viewBox="0 0 48 31" fill="none" xmlns="http://www.w3.org/2000/svg">
<path d="M9.7 30.2558C7 30.2558 4.70833 29.3576 2.825 27.5612C0.941667 25.7647 0 23.5901 0 21.0373C0 18.4844 0.950633 16.3177 2.8519 14.537C4.75313 12.7563 7.0525 11.866 9.75 11.866C12.1167 11.866 14.1917 12.583 15.975 14.017C17.7583 15.451 18.8333 17.271 19.2 19.4772H21.75L17.65 8.50945H14V5.67297H23.4V8.50945H20.8L22.1 11.866H33.2L29.65 2.83648H24.4V0H29.35C30.15 0 30.825 0.173341 31.375 0.520022C31.925 0.866704 32.3333 1.38673 32.6 2.08009L36.4 11.866H38.3C40.9837 11.866 43.2713 12.7521 45.1628 14.5244C47.0543 16.2967 48 18.4401 48 20.9547C48 23.4996 47.0623 25.6859 45.187 27.5139C43.3117 29.3419 41.016 30.2558 38.3 30.2558C35.9133 30.2558 33.8166 29.4994 32.0099 27.9867C30.2033 26.4739 29.1 24.5829 28.7 22.3137H19.2C18.8333 24.5829 17.7583 26.4739 15.975 27.9867C14.1917 29.4994 12.1 30.2558 9.7 30.2558ZM9.7 27.4194C11.3 27.4194 12.6917 26.9308 13.875 25.9538C15.0583 24.9768 15.85 23.7634 16.25 22.3137H10.3V19.4772H16.25C15.85 18.059 15.05 16.9086 13.85 16.0261C12.65 15.1437 11.2833 14.7024 9.75 14.7024C7.88333 14.7024 6.29167 15.317 4.975 16.5462C3.65833 17.7753 3 19.2723 3 21.0373C3 22.8101 3.65 24.3169 4.95 25.5579C6.25 26.7989 7.83333 27.4194 9.7 27.4194ZM24.95 19.4772H28.75C28.8833 18.7523 29.1417 17.9486 29.525 17.0662C29.9083 16.1837 30.4333 15.3958 31.1 14.7024H23.15L24.95 19.4772ZM38.3 27.4194C40.1667 27.4194 41.75 26.7989 43.05 25.5579C44.35 24.3169 45 22.8101 45 21.0373C45 19.2723 44.35 17.7753 43.05 16.5462C41.75 15.317 40.1667 14.7024 38.3 14.7024H37.5L39.45 20.0445L36.65 20.9427L34.5 15.6479C33.5333 16.1837 32.8083 16.9401 32.325 17.9171C31.8417 18.8941 31.6 19.9342 31.6 21.0373C31.6 22.8101 32.25 24.3169 33.55 25.5579C34.85 26.7989 36.4333 27.4194 38.3 27.4194Z" fill="#FFBB00"/>
</svg>
