<svg width="44" height="42" viewBox="0 0 44 42" fill="none" xmlns="http://www.w3.org/2000/svg">
<path d="M20.4 41.4127V37.8671C15.8333 37.4258 12.0333 35.7712 9 32.9032C5.96667 30.0352 4.21667 26.4423 3.75 22.1246H0V19.2881H3.75C4.21667 14.9703 5.96667 11.3775 9 8.50945C12.0333 5.64145 15.8333 3.98684 20.4 3.54561V0H23.4V3.54561C27.9667 3.98684 31.7667 5.64145 34.8 8.50945C37.8333 11.3775 39.5833 14.9703 40.05 19.2881H43.8V22.1246H40.05C39.5833 26.4423 37.8333 30.0352 34.8 32.9032C31.7667 35.7712 27.9667 37.4258 23.4 37.8671V41.4127H20.4ZM21.9 35.0779C26.0667 35.0779 29.6417 33.6675 32.625 30.8468C35.6083 28.026 37.1 24.6459 37.1 20.7063C37.1 16.7668 35.6083 13.3866 32.625 10.5659C29.6417 7.74518 26.0667 6.33482 21.9 6.33482C17.7333 6.33482 14.1583 7.74518 11.175 10.5659C8.19167 13.3866 6.7 16.7668 6.7 20.7063C6.7 24.6459 8.19167 28.026 11.175 30.8468C14.1583 33.6675 17.7333 35.0779 21.9 35.0779Z" fill="url(#paint0_linear_42_214)"/>
<defs>
<linearGradient id="paint0_linear_42_214" x1="21.9" y1="0" x2="21.9" y2="41.4127" gradientUnits="userSpaceOnUse">
<stop stop-color="#FFBB00"/>
<stop offset="1" stop-color="#F2A60C"/>
</linearGradient>
</defs>
</svg>
