<svg width="50" height="36" viewBox="0 0 50 36" fill="none" xmlns="http://www.w3.org/2000/svg">
<path d="M25.1609 0H25.4391C28.008 0.00937559 41.0244 0.103132 44.534 1.04694C45.595 1.33499 46.5618 1.89644 47.3378 2.67519C48.1138 3.45395 48.6719 4.42273 48.9562 5.48472C49.2718 6.67229 49.4937 8.24427 49.6437 9.86624L49.675 10.1913L49.7437 11.0038L49.7687 11.3288C49.9719 14.1853 49.9969 16.8604 50 17.4448V17.6792C49.9969 18.2855 49.9688 21.1419 49.7437 24.1171L49.7187 24.4453L49.6906 24.7703C49.5343 26.5579 49.3031 28.333 48.9562 29.6394C48.6728 30.7018 48.115 31.671 47.3389 32.4499C46.5627 33.2288 45.5954 33.79 44.534 34.0771C40.9088 35.0522 27.1298 35.1209 25.2203 35.1241H24.7765C23.8109 35.1241 19.8169 35.1053 15.6291 34.9616L15.0978 34.9428L14.8259 34.9303L14.2915 34.9084L13.7571 34.8866C10.2881 34.7334 6.98481 34.4865 5.46284 34.074C4.40181 33.7871 3.43479 33.2264 2.65868 32.4481C1.88257 31.6698 1.3246 30.7012 1.04069 29.6394C0.693793 28.3361 0.462529 26.5579 0.306269 24.7703L0.281268 24.4422L0.256266 24.1171C0.10203 21.9995 0.0165631 19.8774 0 17.7542L0 17.3698C0.00625039 16.6979 0.031252 14.3759 0.200013 11.8132L0.221889 11.4913L0.231264 11.3288L0.256266 11.0038L0.32502 10.1913L0.356272 9.86624C0.506282 8.24427 0.728171 6.66917 1.04382 5.48472C1.32725 4.4223 1.885 3.45306 2.66115 2.67417C3.43729 1.89529 4.40456 1.33412 5.46597 1.04694C6.98794 0.640666 10.2913 0.390649 13.7602 0.234389L14.2915 0.212513L14.8291 0.193763L15.0978 0.184387L15.6322 0.162511C18.6065 0.0668002 21.582 0.0136661 24.5578 0.00312534H25.1609V0ZM20.0013 10.0319V25.0891L32.9927 17.5636L20.0013 10.0319Z" fill="white"/>
</svg>
