<svg width="21" height="20" viewBox="0 0 21 20" fill="none" xmlns="http://www.w3.org/2000/svg">
<path d="M10.3838 0C7.67004 0 7.32879 0.0125 6.26254 0.06C5.19629 0.11 4.47004 0.2775 3.83379 0.525C3.16641 0.776024 2.5619 1.16978 2.06254 1.67875C1.55388 2.17837 1.16017 2.7828 0.908789 3.45C0.661289 4.085 0.492539 4.8125 0.443789 5.875C0.396289 6.94375 0.383789 7.28375 0.383789 10.0013C0.383789 12.7163 0.396289 13.0563 0.443789 14.1225C0.493789 15.1875 0.661289 15.9137 0.908789 16.55C1.16504 17.2075 1.50629 17.765 2.06254 18.3212C2.61754 18.8775 3.17504 19.22 3.83254 19.475C4.47004 19.7225 5.19504 19.8912 6.26004 19.94C7.32754 19.9875 7.66754 20 10.3838 20C13.1 20 13.4388 19.9875 14.5063 19.94C15.57 19.89 16.2988 19.7225 16.935 19.475C17.602 19.2239 18.2061 18.8301 18.705 18.3212C19.2613 17.765 19.6025 17.2075 19.8588 16.55C20.105 15.9137 20.2738 15.1875 20.3238 14.1225C20.3713 13.0563 20.3838 12.7163 20.3838 10C20.3838 7.28375 20.3713 6.94375 20.3238 5.87625C20.2738 4.8125 20.105 4.085 19.8588 3.45C19.6074 2.78278 19.2137 2.17834 18.705 1.67875C18.2058 1.16959 17.6013 0.775807 16.9338 0.525C16.2963 0.2775 15.5688 0.10875 14.505 0.06C13.4375 0.0125 13.0988 0 10.3813 0H10.385H10.3838ZM9.48754 1.8025H10.385C13.055 1.8025 13.3713 1.81125 14.425 1.86C15.4 1.90375 15.93 2.0675 16.2825 2.20375C16.7488 2.385 17.0825 2.6025 17.4325 2.9525C17.7825 3.3025 17.9988 3.635 18.18 4.1025C18.3175 4.45375 18.48 4.98375 18.5238 5.95875C18.5725 7.0125 18.5825 7.32875 18.5825 9.9975C18.5825 12.6663 18.5725 12.9837 18.5238 14.0375C18.48 15.0125 18.3163 15.5413 18.18 15.8938C18.0197 16.3279 17.7638 16.7205 17.4313 17.0425C17.0813 17.3925 16.7488 17.6088 16.2813 17.79C15.9313 17.9275 15.4013 18.09 14.425 18.135C13.3713 18.1825 13.055 18.1938 10.385 18.1938C7.71504 18.1938 7.39754 18.1825 6.34379 18.135C5.36879 18.09 4.84004 17.9275 4.48754 17.79C4.05316 17.6299 3.6602 17.3745 3.33754 17.0425C3.00473 16.72 2.74844 16.3271 2.58754 15.8925C2.45129 15.5412 2.28754 15.0113 2.24379 14.0363C2.19629 12.9825 2.18629 12.6663 2.18629 9.995C2.18629 7.325 2.19629 7.01 2.24379 5.95625C2.28879 4.98125 2.45129 4.45125 2.58879 4.09875C2.77004 3.6325 2.98754 3.29875 3.33754 2.94875C3.68754 2.59875 4.02004 2.3825 4.48754 2.20125C4.84004 2.06375 5.36879 1.90125 6.34379 1.85625C7.26629 1.81375 7.62379 1.80125 9.48754 1.8V1.8025ZM15.7225 3.4625C15.565 3.4625 15.4089 3.49354 15.2633 3.55384C15.1177 3.61415 14.9854 3.70254 14.874 3.81397C14.7626 3.9254 14.6742 4.05769 14.6139 4.20328C14.5536 4.34887 14.5225 4.50491 14.5225 4.6625C14.5225 4.82009 14.5536 4.97613 14.6139 5.12172C14.6742 5.26731 14.7626 5.3996 14.874 5.51103C14.9854 5.62246 15.1177 5.71085 15.2633 5.77116C15.4089 5.83146 15.565 5.8625 15.7225 5.8625C16.0408 5.8625 16.346 5.73607 16.5711 5.51103C16.7961 5.28598 16.9225 4.98076 16.9225 4.6625C16.9225 4.34424 16.7961 4.03902 16.5711 3.81397C16.346 3.58893 16.0408 3.4625 15.7225 3.4625ZM10.385 4.865C9.70388 4.85437 9.02741 4.97936 8.39501 5.23268C7.76262 5.486 7.18693 5.86259 6.70148 6.34053C6.21602 6.81847 5.83049 7.38821 5.56734 8.01657C5.30419 8.64494 5.16866 9.31938 5.16866 10.0006C5.16866 10.6819 5.30419 11.3563 5.56734 11.9847C5.83049 12.613 6.21602 13.1828 6.70148 13.6607C7.18693 14.1387 7.76262 14.5153 8.39501 14.7686C9.02741 15.0219 9.70388 15.1469 10.385 15.1363C11.7332 15.1152 13.0191 14.5649 13.965 13.6041C14.911 12.6432 15.4412 11.349 15.4412 10.0006C15.4412 8.65228 14.911 7.35802 13.965 6.39719C13.0191 5.43636 11.7332 4.88603 10.385 4.865ZM10.385 6.66625C11.2692 6.66625 12.1172 7.01748 12.7424 7.64268C13.3676 8.26788 13.7188 9.11583 13.7188 10C13.7188 10.8842 13.3676 11.7321 12.7424 12.3573C12.1172 12.9825 11.2692 13.3337 10.385 13.3337C9.50087 13.3337 8.65292 12.9825 8.02772 12.3573C7.40252 11.7321 7.05129 10.8842 7.05129 10C7.05129 9.11583 7.40252 8.26788 8.02772 7.64268C8.65292 7.01748 9.50087 6.66625 10.385 6.66625Z" fill="#F2A60C"/>
</svg>
