<svg width="150" height="66" viewBox="0 0 150 66" fill="none" xmlns="http://www.w3.org/2000/svg">
<path d="M75 0C54.5298 0 35.9903 3.53649 22.4355 9.34569C15.6581 12.2503 10.1221 15.7244 6.21093 19.6875C2.29971 23.6506 0 28.1779 0 33C0 37.8221 2.29974 42.3494 6.21093 46.3125C10.1221 50.2756 15.6581 53.7497 22.4355 56.6543C35.9903 62.4635 54.5298 66 75 66C95.4702 66 114.01 62.4635 127.564 56.6543C134.342 53.7497 139.878 50.2756 143.789 46.3125C147.7 42.3494 150 37.8221 150 33C150 28.1779 147.7 23.6506 143.789 19.6875C139.878 15.7244 134.342 12.2503 127.564 9.34569C114.01 3.53649 95.4701 0 75 0ZM75 3C95.1227 3 113.334 6.5139 126.381 12.1055C132.904 14.9013 138.129 18.2169 141.656 21.791C145.184 25.3652 147 29.1237 147 33C147 36.8764 145.184 40.6348 141.656 44.209C138.129 47.7832 132.904 51.0988 126.381 53.8946C113.334 59.4861 95.1227 63.0001 75 63.0001C54.8772 63.0001 36.6661 59.4862 23.6191 53.8946C17.0956 51.0988 11.8711 47.7832 8.34372 44.209C4.81632 40.6349 2.99997 36.8764 2.99997 33C2.99997 29.1237 4.81632 25.3652 8.34372 21.791C11.8711 18.2169 17.0956 14.9013 23.6191 12.1055C36.6661 6.51393 54.8772 3 75 3ZM75 6C36.891 6 5.99997 18.087 5.99997 33C5.99997 47.913 36.891 60 75 60C113.109 60 144 47.913 144 33C144 18.087 113.109 6 75 6ZM36 15C40.953 15 44.361 23.787 39 30C39 30 33.831 38.616 27 30C27 30 24.063 37.341 27 45L22.9277 47.3848C22.9277 47.3848 19.6759 38.214 23.2969 27C26.5519 16.914 30 15 36 15ZM88.7109 16.2305C91.1109 16.4105 91.6221 23.401 88.4121 28.711C85.2021 34.051 83.3378 37.5879 83.3378 37.5879C83.3378 37.5879 83.4311 40.8288 85.2011 40.7988C86.9711 40.7388 89.8499 34.92 89.9999 30C89.9999 30 91.8616 31.5 93.9316 31.5C95.9716 31.5 97.7378 29.6377 99.0878 30.5977C100.438 31.5577 96.9902 35.6072 96.9902 37.6172C96.9902 39.6272 97.9816 40.6523 99.1816 40.6523C100.382 40.6523 102.691 39.7793 103.441 37.5293C103.441 37.5293 102.599 29.6712 105.299 23.7012C108.029 17.7012 110.82 16.7977 112.98 17.0977C115.14 17.3677 115.713 23.4612 111.633 30.4512C107.643 37.2612 107.01 37.3477 106.98 37.3477C106.98 37.3477 108.033 41.4023 110.883 41.4023C113.703 41.4023 118.053 35.4605 119.643 28.2305L115.5 27.0879L117 24C117 24 119.519 25.1426 120.779 25.1426L122.883 19.5879L126.48 19.4707L125.367 23.8828C125.367 23.8828 127.372 21.6914 134.971 21.6914V25.1426C134.971 25.1426 129.779 23.1317 124.019 27.1817L120.838 34.6523C120.838 34.6523 117.331 43.1723 125.701 40.6523V43.7402C125.701 43.7402 117.988 44.2791 117.328 41.0391C117.328 41.0391 114.932 44.1328 110.642 44.1328C106.322 44.1328 104.49 40.3184 104.49 40.3184C104.49 40.3184 103.352 43.5586 99.1522 43.5586C94.9222 43.5586 92.3373 39.9284 95.6073 33.5684H91.6171C91.6171 33.5684 91.1411 43.7989 85.2011 43.7989C83.0411 43.7989 80.9413 40.6817 80.9413 40.6817C80.9413 40.6817 78.4499 44.1329 74.9999 44.1329C71.5499 44.1329 70.1711 39.2105 73.2011 32.7305H71.039C71.039 32.7305 68.7918 43.8926 62.6718 43.8926C60.3018 43.8926 58.6523 42.4512 58.6523 42.4512C58.6523 42.4512 56.9083 44.1329 54.5683 44.1329C52.2283 44.1329 50.162 40.6817 50.162 40.6817C50.162 40.6817 47.2523 44.1329 43.6523 44.1329C40.0523 44.1329 38.9999 42 38.9999 42L35.9999 45L34.6581 41.9883L37.6054 40.1777C37.6054 40.1777 37.0513 37.7688 38.1913 34.7988C39.3613 31.8288 42.1499 29.7 44.9999 30C47.8799 30.3 49.4404 34.5605 42.4804 40.9805C42.4804 40.9805 45.6306 43.1679 48.7206 37.5879C51.8406 31.9779 52.078 28.8574 52.078 28.8574C52.078 28.8574 48.119 28.9174 47.039 28.1074L47.9706 25.7109C47.9706 25.7109 52.2613 26.7009 53.1913 25.7109L55.5058 18.082H59.1503L56.9999 24C56.9999 24 61.4699 20.04 71.9999 21L70.3183 24.0117C70.3183 24.0117 63.0299 22.35 56.9999 27L53.6718 34.8574C53.6718 34.8574 50.936 43.8221 56.912 40.8281C56.912 40.8281 55.6802 37.2921 56.4902 34.4121C57.3002 31.5621 59.3718 28.7695 62.6718 28.7695C65.9718 28.7695 68.1281 34.3181 61.0781 40.8281C61.0781 40.8281 64.4716 43.2276 66.9316 37.3476C69.3616 31.4376 68.9999 30 68.9999 30H71.9999C73.3799 30 75.6295 28.9505 76.7695 29.7305C77.9395 30.4805 73.5876 39.7786 75.5976 40.5586C77.6076 41.3086 79.7988 38.4317 79.7988 38.4317C79.7988 38.4317 78.5976 32.3984 80.8476 25.3184C83.0976 18.2384 86.3109 16.0505 88.7109 16.2305ZM34.9277 17.9707C32.3303 18.1147 29.1794 19.8328 28.3945 24.4922C27.3865 30.4682 35.2678 32.4756 37.7578 26.6016C40.2478 20.7306 37.446 18.171 36 18C35.6602 17.9603 35.2987 17.9501 34.9277 17.9707ZM87.6914 19.2305C86.8214 19.2305 84.7209 21.15 83.4609 25.5C82.2309 29.85 81.9292 34.1074 82.5292 34.1074C84.3292 34.1074 86.9713 27.1207 87.6913 24.7207C88.4113 22.3507 88.5614 19.2305 87.6914 19.2305ZM111.662 19.7988C110.822 19.7988 108.598 21.15 107.338 25.5C106.108 29.85 105.813 34.1074 106.383 34.1074C107.733 34.1074 111.182 26.9677 111.902 24.5977C112.622 22.1977 112.532 19.7988 111.662 19.7988ZM100.67 23.1035C100.946 23.1148 101.205 23.1894 101.437 23.3379C102.367 23.9319 102.467 25.4495 101.654 26.7305C100.841 28.0085 99.4202 28.5667 98.4902 27.9727C97.5602 27.3787 97.4663 25.8581 98.2793 24.5801C98.889 23.6216 99.8412 23.0698 100.67 23.1035ZM61.6992 31.2363C59.4641 31.4324 58.425 38.3379 59.5781 38.3379C60.8081 38.3379 65.3721 32.2791 62.1621 31.2891C62.0027 31.2385 61.8482 31.2232 61.6992 31.2363ZM43.5234 32.1328C41.2693 32.1536 39.484 38.659 40.4121 38.9121C41.5821 39.2121 46.4404 33.1807 43.9804 32.2207C43.8267 32.1607 43.6737 32.1314 43.5234 32.1328Z" fill="#989898"/>
</svg>
