<svg width="150" height="74" viewBox="0 0 150 74" fill="none" xmlns="http://www.w3.org/2000/svg">
<path d="M4.6509 0.467937C3.35828 0.488141 2.32607 1.55108 2.34378 2.84373V7.53123C2.33183 8.37648 2.77592 9.16266 3.50598 9.58878C4.23606 10.0149 5.13901 10.0149 5.86906 9.58878C6.59914 9.16266 7.04321 8.37648 7.03126 7.53123V2.84373C7.03993 2.21021 6.79178 1.60016 6.34335 1.15259C5.89492 0.705008 5.28442 0.458047 4.6509 0.467937ZM16.3696 0.467937C15.077 0.488141 14.0448 1.55108 14.0625 2.84373V7.53123C14.0506 8.37648 14.4947 9.16266 15.2247 9.58878C15.9548 10.0149 16.8578 10.0149 17.5878 9.58878C18.3179 9.16266 18.762 8.37648 18.75 7.53123V2.84373C18.7587 2.21021 18.5105 1.60016 18.0621 1.15259C17.6137 0.705008 17.0032 0.458047 16.3696 0.467937ZM28.0884 0.467937C26.7958 0.488141 25.7636 1.55108 25.7813 2.84373V7.53123C25.7693 8.37648 26.2134 9.16266 26.9435 9.58878C27.6736 10.0149 28.5765 10.0149 29.3066 9.58878C30.0366 9.16266 30.4807 8.37648 30.4688 7.53123V2.84373C30.4774 2.21021 30.2293 1.60016 29.7808 1.15259C29.3324 0.705008 28.7219 0.458047 28.0884 0.467937ZM39.8072 0.467937C38.5145 0.488141 37.4823 1.55108 37.5 2.84373V7.53123C37.4881 8.37648 37.9322 9.16266 38.6622 9.58878C39.3923 10.0149 40.2953 10.0149 41.0253 9.58878C41.7554 9.16266 42.1995 8.37648 42.1875 7.53123V2.84373C42.1962 2.21021 41.948 1.60016 41.4996 1.15259C41.0512 0.705008 40.4407 0.458047 39.8072 0.467937ZM51.5259 0.467937C50.2333 0.488141 49.2011 1.55108 49.2188 2.84373V7.53123C49.2068 8.37648 49.6509 9.16266 50.381 9.58878C51.1111 10.0149 52.014 10.0149 52.7441 9.58878C53.4741 9.16266 53.9182 8.37648 53.9063 7.53123V2.84373C53.9149 2.21021 53.6668 1.60016 53.2183 1.15259C52.7699 0.705008 52.1594 0.458047 51.5259 0.467937ZM63.2447 0.467937C61.952 0.488141 60.9198 1.55108 60.9375 2.84373V7.53123C60.9256 8.37648 61.3697 9.16266 62.0997 9.58878C62.8298 10.0149 63.7328 10.0149 64.4628 9.58878C65.1929 9.16266 65.637 8.37648 65.625 7.53123V2.84373C65.6337 2.21021 65.3855 1.60016 64.9371 1.15259C64.4887 0.705008 63.8782 0.458047 63.2447 0.467937ZM74.9634 0.467937C73.6708 0.488141 72.6386 1.55108 72.6563 2.84373V7.53123C72.6443 8.37648 73.0884 9.16266 73.8185 9.58878C74.5486 10.0149 75.4515 10.0149 76.1816 9.58878C76.9116 9.16266 77.3557 8.37648 77.3438 7.53123V2.84373C77.3524 2.21021 77.1043 1.60016 76.6558 1.15259C76.2074 0.705008 75.5969 0.458047 74.9634 0.467937ZM86.6821 0.467937C85.3895 0.488141 84.3573 1.55108 84.375 2.84373V7.53123C84.3631 8.37648 84.8072 9.16266 85.5372 9.58878C86.2673 10.0149 87.1703 10.0149 87.9003 9.58878C88.6304 9.16266 89.0745 8.37648 89.0625 7.53123V2.84373C89.0712 2.21021 88.823 1.60016 88.3746 1.15259C87.9262 0.705008 87.3157 0.458047 86.6821 0.467937ZM98.4009 0.467937C97.1083 0.488141 96.0761 1.55108 96.0938 2.84373V7.53123C96.0818 8.37648 96.5259 9.16266 97.256 9.58878C97.9861 10.0149 98.889 10.0149 99.6191 9.58878C100.349 9.16266 100.793 8.37648 100.781 7.53123V2.84373C100.79 2.21021 100.542 1.60016 100.093 1.15259C99.6449 0.705008 99.0344 0.458047 98.4009 0.467937ZM110.12 0.467937C108.827 0.488141 107.795 1.55108 107.813 2.84373V7.53123C107.801 8.37648 108.245 9.16266 108.975 9.58878C109.705 10.0149 110.608 10.0149 111.338 9.58878C112.068 9.16266 112.512 8.37648 112.5 7.53123V2.84373C112.509 2.21021 112.261 1.60016 111.812 1.15259C111.364 0.705008 110.753 0.458047 110.12 0.467937ZM121.838 0.467937C120.546 0.488141 119.514 1.55108 119.531 2.84373V7.53123C119.519 8.37648 119.963 9.16266 120.693 9.58878C121.424 10.0149 122.327 10.0149 123.057 9.58878C123.787 9.16266 124.231 8.37648 124.219 7.53123V2.84373C124.227 2.21021 123.979 1.60016 123.531 1.15259C123.082 0.705008 122.472 0.458047 121.838 0.467937ZM133.557 0.467937C132.265 0.488141 131.232 1.55108 131.25 2.84373V7.53123C131.238 8.37648 131.682 9.16266 132.412 9.58878C133.142 10.0149 134.045 10.0149 134.775 9.58878C135.505 9.16266 135.949 8.37648 135.938 7.53123V2.84373C135.946 2.21021 135.698 1.60016 135.25 1.15259C134.801 0.705008 134.191 0.458047 133.557 0.467937ZM145.276 0.467937C143.983 0.488141 142.951 1.55108 142.969 2.84373V7.53123C142.957 8.37648 143.401 9.16266 144.131 9.58878C144.861 10.0149 145.764 10.0149 146.494 9.58878C147.224 9.16266 147.668 8.37648 147.656 7.53123V2.84373C147.665 2.21021 147.417 1.60016 146.968 1.15259C146.52 0.705008 145.909 0.458047 145.276 0.467937ZM72.702 16.9749C67.1708 16.9749 63.4442 18.2165 60.9833 19.9275C60.1395 18.6619 58.6866 17.8218 57.0694 17.8218H36.0214C35.5996 17.8218 35.1793 17.8694 34.7809 17.9866C34.3825 17.8694 33.9622 17.8218 33.5403 17.8218H4.66461C2.06305 17.8218 -0.0228882 19.9077 -0.0228882 22.5093V28.3915C-0.0228882 30.1728 0.982909 31.8112 2.6001 32.5847C3.25635 32.9128 3.96149 33.079 4.66461 33.079C5.67242 33.079 6.70532 32.7277 7.52563 32.0949C7.54907 32.0714 8.31903 31.5085 10.9909 31.1335V42.1931C10.9909 42.8259 10.9914 43.1551 10.968 43.3192C10.9211 43.3661 10.9004 43.4137 10.8536 43.484C9.70513 44.8668 9.49419 46.8147 10.2676 48.4553C11.0411 50.0725 12.6789 51.1012 14.4836 51.1012H23.7671C25.5952 51.1012 27.26 50.0461 28.0334 48.3821C28.7834 46.718 28.5238 44.7752 27.3285 43.3924C27.305 43.369 27.3062 43.3426 27.2827 43.3192C27.2593 43.1317 27.2598 42.8025 27.2598 42.1931V31.1106C29.0879 31.4153 30.2814 31.8136 30.6564 32.0948C31.2189 32.5167 31.8495 32.8194 32.5058 32.96V42.1931C32.5058 42.9196 32.4834 43.2736 32.46 43.4611C32.4366 43.4845 32.4148 43.5057 32.3913 43.5526C31.2898 44.9589 31.1006 46.8844 31.8741 48.4782C32.6709 50.0953 34.3134 51.1011 36.0947 51.1011H58.5022C59.2522 51.1011 59.9522 50.9395 60.585 50.6113C64.7334 51.7832 69.446 52.0396 72.821 52.0396C80.8835 52.0396 85.1239 49.6026 87.3504 46.7432C91.1239 50.0479 96.7027 52.0167 103.336 52.0167C106.781 52.0167 109.944 51.5946 113.905 50.6571C115.171 50.3524 116.202 49.5557 116.835 48.5011C120.14 50.7511 124.406 52.0167 129.304 52.0167C141.492 52.0167 150 44.7492 150 34.3195C150 29.2805 147.963 24.7801 144.26 21.6395C140.744 18.6395 135.984 17.0481 130.499 17.0481C125.179 17.0481 120.494 18.4994 116.931 21.0307C116.439 19.4135 115.104 18.1733 113.393 17.8217C110.979 17.3061 108.069 17.0481 104.951 17.0481C98.0374 17.0481 92.2738 18.8772 88.266 22.0881C87.8441 20.5881 86.6955 19.3439 85.1486 18.8517C81.5392 17.7267 76.663 16.9749 72.702 16.9749ZM72.702 21.6624C76.0536 21.6624 80.4386 22.2974 83.7433 23.3287V28.9042C81.1886 26.5605 76.5471 25.2971 72.258 25.2971C69.6799 25.2971 66.774 26.0247 66.774 28.181C66.774 33.5247 85.0067 28.6254 85.0067 39.5473C85.0067 45.7348 79.1023 47.3521 72.8211 47.3521C68.2976 47.3521 64.1497 46.8585 61.0794 45.8507V40.6001C65.181 43.0611 68.4128 43.7679 73.1003 43.7679C75.7253 43.7679 78.9597 42.9241 78.9597 40.8382C78.9597 34.4397 60.7269 39.9708 60.7269 29.5177C60.7269 23.4708 66.6317 21.6624 72.702 21.6624ZM104.951 21.7356C107.647 21.7356 110.321 21.9684 112.454 22.3902V28.625C110.392 26.6094 107.86 25.4619 104.672 25.4619C98.8363 25.4619 94.6655 29.2584 94.6655 34.4615C94.6655 39.7349 98.6933 43.3925 104.576 43.3925C107.6 43.3925 110.44 42.3846 112.807 39.8768V46.0841C109.455 46.9044 106.57 47.3292 103.336 47.3292C93.3981 47.3292 86.7417 42.3839 86.7417 35.0245C86.7417 27.0089 93.9827 21.7356 104.951 21.7356ZM130.499 21.7356C139.382 21.7356 145.313 26.7727 145.313 34.3196C145.313 42.0305 138.773 47.3292 129.305 47.3292C120.375 47.3292 114.377 42.3368 114.377 34.8368C114.377 27.1728 121.054 21.7356 130.499 21.7356ZM4.66461 22.5093H33.5403V28.3915C31.4778 26.7978 26.627 26.0483 22.5723 26.0249V42.1931C22.5723 44.5369 22.7358 45.1949 23.7671 46.4137H14.4836C15.4914 45.1949 15.6784 44.5369 15.6784 42.1931V26.1622C10.9909 26.1857 6.70367 26.7978 4.66461 28.3915V22.5093ZM36.0214 22.5093H57.0694V28.3457C55.171 26.752 50.1114 26.1622 47.1817 26.1622H43.9453V32.4931H46.3348C47.952 32.4931 50.9055 32.3501 52.5696 31.811V36.7823C50.8821 36.2901 47.952 36.1002 46.3348 36.1002H43.9453V42.7561H47.1817C47.463 42.7795 47.764 42.779 48.1156 42.779C50.8343 42.779 55.76 42.5453 58.5022 40.6V46.4136H36.0947C37.0087 45.2418 37.1933 44.5368 37.1933 42.1931V26.7481C37.1933 24.4278 37.0058 23.728 36.0214 22.5093ZM129.868 25.3657C129.238 25.3657 128.634 25.432 128.064 25.5534C127.494 25.6748 126.957 25.8539 126.453 26.0844C125.948 26.3149 125.477 26.5946 125.043 26.9221C124.609 27.2496 124.211 27.6221 123.853 28.0345C123.136 28.8592 122.575 29.8412 122.195 30.9321C122.006 31.4776 121.863 32.0504 121.765 32.6442C121.668 33.2379 121.619 33.8545 121.619 34.4844C121.619 35.75 121.816 36.9561 122.195 38.0503C122.385 38.5975 122.624 39.116 122.9 39.6022C123.177 40.0883 123.494 40.5395 123.853 40.9526C124.211 41.3656 124.609 41.7416 125.043 42.0695C125.477 42.3974 125.948 42.6765 126.453 42.9072C126.957 43.1379 127.494 43.3168 128.064 43.4382C128.634 43.5596 129.238 43.6259 129.868 43.6259C130.486 43.6259 131.077 43.5596 131.639 43.4382C134.451 42.8312 136.528 40.7859 137.485 38.0503C137.676 37.5032 137.821 36.9251 137.92 36.3291C138.018 35.7331 138.071 35.1172 138.071 34.4844C138.071 33.2246 137.867 32.023 137.485 30.9321C137.293 30.3867 137.058 29.8699 136.78 29.3849C135.391 26.9599 132.958 25.3657 129.868 25.3657ZM129.868 30.0532C130.213 30.0532 130.525 30.0973 130.811 30.1768C131.381 30.3357 131.835 30.6391 132.193 31.0237C132.372 31.2159 132.527 31.4298 132.66 31.6554C132.793 31.881 132.906 32.1168 132.999 32.3603C133.091 32.6039 133.166 32.8558 133.223 33.1019C133.336 33.5941 133.383 34.0742 133.383 34.4844C133.383 34.9004 133.336 35.3851 133.223 35.8805C133.109 36.376 132.926 36.8836 132.66 37.3362C132.527 37.5625 132.372 37.7752 132.193 37.9679C132.014 38.1606 131.814 38.3323 131.584 38.476C131.355 38.6198 131.096 38.7353 130.811 38.8148C130.525 38.8943 130.213 38.9384 129.868 38.9384C129.539 38.9384 129.238 38.8979 128.961 38.8285C128.684 38.7591 128.43 38.6591 128.201 38.531C127.973 38.4028 127.771 38.2495 127.588 38.0732C127.039 37.5442 126.687 36.8211 126.494 36.0499C126.365 35.5358 126.306 35 126.306 34.4844C126.306 33.9746 126.365 33.4434 126.494 32.9325C126.558 32.6771 126.64 32.426 126.741 32.1864C126.842 31.9467 126.962 31.7174 127.103 31.5043C127.243 31.2912 127.405 31.0943 127.588 30.9184C127.954 30.5665 128.407 30.3017 128.961 30.163C129.238 30.0937 129.539 30.0532 129.868 30.0532ZM104.672 30.1493C106.477 30.1493 107.906 30.7336 109.172 31.9758C109.383 32.1633 109.615 32.3519 109.85 32.516C109.732 33.266 109.689 34.04 109.689 34.8368C109.689 35.329 109.711 35.8415 109.758 36.3337C109.641 36.4275 109.523 36.5461 109.406 36.6633C108.093 38.0461 106.545 38.7049 104.576 38.7049C103.357 38.7049 99.353 38.399 99.353 34.4615C99.353 31.8365 101.438 30.1493 104.672 30.1493ZM57.2571 34.8826C57.468 35.2576 57.7048 35.6114 57.9392 35.9629C57.7048 35.9864 57.4915 36.0305 57.2571 36.0774V34.8826ZM15.4175 56.75C10.1722 56.75 6.66449 60.2542 5.71292 61.3276C4.75667 62.3542 3.14462 63.8504 2.47196 64.2207C2.42509 64.2465 2.37458 64.275 2.33005 64.3031C0.520674 65.3859 -0.395333 67.6361 0.164823 69.6681C0.73201 71.7212 2.62539 73.1562 4.76992 73.1562H21.1487C24.587 73.1562 26.9119 72.1375 28.7705 70.7805C29.6072 72.2219 31.1766 73.1562 32.9087 73.1562H49.3195C52.7578 73.1562 55.085 72.1375 56.9412 70.7805C57.7826 72.2219 59.3497 73.1562 61.0794 73.1562H77.4902C80.9074 73.1562 83.2261 72.1375 85.08 70.7805C85.9214 72.2219 87.4885 73.1562 89.2182 73.1562H105.629C109.067 73.1562 111.392 72.1351 113.251 70.7805C114.087 72.2195 115.657 73.1562 117.389 73.1562H133.804C138.822 73.1562 141.471 70.9837 143.756 68.7571C144.858 67.6368 146.475 66.2407 147.153 65.8961C149.215 64.9422 150.344 62.7938 149.908 60.5907C149.47 58.3664 147.488 56.75 145.198 56.75H128.036C125.147 56.75 122.785 57.8129 121.088 58.9473C120.22 57.6137 118.71 56.75 117.032 56.75H99.8657C96.9923 56.75 94.6343 57.8151 92.9398 58.9519C92.0772 57.6159 90.5689 56.75 88.8931 56.75H71.727C68.8348 56.75 66.4682 57.8197 64.769 58.9565C63.9088 57.6182 62.3959 56.75 60.7178 56.75H43.5562C40.6687 56.75 38.302 57.8175 36.6028 58.9519C35.7379 57.6159 34.2251 56.75 32.547 56.75L15.4175 56.75ZM15.4175 61.4375H32.547C32.6947 61.4375 32.7392 61.5729 32.547 61.6526C30.6275 62.5667 27.8275 65.3971 27.8275 65.3971C25.9056 67.2721 24.3878 68.4688 21.1487 68.4688H4.76992C4.65976 68.4688 4.65819 68.3737 4.73788 68.3268C6.5496 67.3261 9.22396 64.4358 9.22396 64.4358C10.3232 63.1936 12.6027 61.4375 15.4175 61.4375ZM43.5562 61.4375H60.7178C60.8654 61.4375 60.8803 61.5729 60.6857 61.6526C58.7686 62.5667 56.0028 65.3971 56.0028 65.3971C54.0809 67.2721 52.5562 68.4688 49.3195 68.4688H32.9087C32.7985 68.4688 32.7969 68.3737 32.8766 68.3268C34.6883 67.3261 37.3627 64.4358 37.3627 64.4358C38.4643 63.1936 40.7414 61.4375 43.5562 61.4375ZM71.7316 61.4375H88.8931C89.0408 61.4375 89.051 61.5729 88.8565 61.6526C86.9394 62.5667 84.1416 65.3971 84.1416 65.3971C82.2197 67.2721 80.7316 68.4688 77.4948 68.4688H61.084C60.9739 68.4688 60.9723 68.3737 61.052 68.3268C62.8637 67.3261 65.5381 64.4358 65.5381 64.4358C66.6396 63.1936 68.9191 61.4375 71.7316 61.4375ZM99.8657 61.4375H117.032C117.177 61.4375 117.226 61.5729 117.032 61.6526C115.115 62.5667 112.312 65.3971 112.312 65.3971C110.39 67.2721 108.866 68.4688 105.629 68.4688H89.2182C89.108 68.4688 89.1065 68.3737 89.1861 68.3268C90.9979 67.3261 93.7089 64.4358 93.7089 64.4358C94.8104 63.1936 97.0532 61.4375 99.8657 61.4375ZM128.037 61.4375H145.198C145.346 61.4375 145.358 61.5729 145.166 61.6526C143.251 62.5667 140.483 65.3971 140.483 65.3971C138.559 67.2721 137.041 68.4688 133.804 68.4688H117.389C117.279 68.4688 117.277 68.3737 117.357 68.3268C119.169 67.3261 121.843 64.4358 121.843 64.4358C122.945 63.1936 125.224 61.4375 128.037 61.4375Z" fill="#989898"/>
</svg>
