<svg width="132" height="94" viewBox="0 0 132 94" fill="none" xmlns="http://www.w3.org/2000/svg">
<path d="M5.0625 0.015511C3.11916 0.0123359 1.37536 1.20379 0.678562 3.01084C-0.0182346 4.81789 0.476485 6.86583 1.92225 8.15936L44.9246 46.7081L1.92225 85.2569C0.476485 86.5504 -0.0182346 88.5983 0.678562 90.4054C1.37536 92.2124 3.11916 93.4039 5.0625 93.4007H33.1875C34.3465 93.4029 35.4652 92.9773 36.3278 92.206L83.2028 50.1827C84.193 49.297 84.7587 48.0338 84.7587 46.7081C84.7587 45.3824 84.193 44.1192 83.2028 43.2335L36.3278 1.21019C35.4652 0.438966 34.3465 0.0133632 33.1875 0.015511H5.0625ZM98.8125 0.015511C97.6535 0.0133632 96.5348 0.438966 95.6723 1.21019L76.8765 18.0633C75.8893 18.9488 75.3256 20.2101 75.3256 21.5333C75.3256 22.8566 75.8893 24.1178 76.8765 25.0033L90.939 37.6158C92.7217 39.2137 95.4276 39.2137 97.2103 37.6158L130.078 8.15936C131.524 6.86583 132.018 4.81789 131.321 3.01084C130.625 1.20379 128.881 0.0123359 126.938 0.015511H98.8125ZM17.2848 9.35403H31.3931L73.0496 46.7081L31.3931 84.0622H17.2848L55.0778 50.1827C56.068 49.297 56.6337 48.0338 56.6337 46.7081C56.6337 45.3824 56.068 44.1192 55.0778 43.2335L17.2848 9.35403ZM100.616 9.35403H114.715L94.0793 27.8578L87.0205 21.5379L100.616 9.35403ZM94.2349 54.6058C93.0225 54.5642 91.841 54.9924 90.939 55.8004L76.8765 68.4129C75.8893 69.2984 75.3256 70.5596 75.3256 71.8829C75.3256 73.2062 75.8893 74.4674 76.8765 75.3529L95.6723 92.206C96.5348 92.9773 97.6535 93.4029 98.8125 93.4007H126.938C128.881 93.4039 130.625 92.2124 131.321 90.4054C132.018 88.5983 131.524 86.5504 130.078 85.2569L97.2103 55.8004C96.3904 55.066 95.3369 54.643 94.2349 54.6058ZM94.0792 65.5493L114.715 84.0622H100.607L87.0204 71.8784L94.0792 65.5493Z" fill="#989898"/>
</svg>
