<svg width="150" height="90" viewBox="0 0 150 90" fill="none" xmlns="http://www.w3.org/2000/svg">
<path d="M106.811 0.0351621C96.8686 -0.357838 87.6265 2.49648 80.0215 7.60548C72.5605 12.6215 63.6384 15 54.6504 15C50.5404 15 46.4135 14.5973 42.4805 13.4063C37.5215 11.9033 32.0754 11.5311 26.4024 12.6621C12.4194 15.4521 1.63368 27.3355 0.181683 41.5195C-1.84632 61.3075 13.626 78 33 78C36.261 78 39.3992 77.5169 42.3692 76.6289C46.4642 75.4019 50.7652 75 55.0372 75C63.9682 75 72.7429 77.5383 80.1739 82.4883C87.2839 87.2253 95.8111 90 105 90C130.548 90 151.126 68.7083 149.953 42.9023C148.906 19.8563 129.86 0.944162 106.811 0.0351621ZM26.6133 27.0176C29.7002 26.857 32.3644 27.6467 33.75 28.166C34.365 28.397 34.7754 28.9738 34.7754 29.6308L34.7812 32.1152C34.7843 33.1712 33.7649 33.8859 32.7539 33.5859C30.9329 33.0429 28.9298 32.7729 27.7148 32.7129C25.6088 32.6079 24.1599 33.4358 23.7129 34.0898C23.2569 34.7558 23.3577 36.147 23.8887 36.75C25.9287 39.06 30.8872 39.7115 33.4102 41.7304C36.2422 43.9985 36.3735 45.442 36.5625 46.957C36.8535 49.276 35.966 52.4435 34.541 53.7305C33.116 55.0205 31.5934 56.3724 26.2324 56.6484C22.4224 56.8434 19.4855 55.7091 18.1055 55.0371C17.5655 54.7731 17.2383 54.2309 17.2383 53.6308V50.9414C17.2383 49.8314 18.3597 49.0333 19.3887 49.4473C20.7297 49.9873 22.5993 50.5554 24.7383 50.6484C28.6413 50.8194 30.1106 49.8693 30.1406 48.4863C30.2186 44.9133 24.5931 44.4809 20.4141 42.1289C16.3911 39.8639 13.9732 32.1847 20.7832 28.5938C22.7576 27.5531 24.7611 27.1139 26.6133 27.0176ZM49.4824 34.2188C51.5612 34.2331 53.6582 34.6717 55.4942 35.7539C62.0462 39.6239 62.5651 49.5327 56.8711 54.2637C52.3201 58.0467 45.6621 56.0273 45.6621 56.0273V61.4355C45.6621 62.2995 44.9617 63 44.0977 63H40.8047C39.9407 63 39.2402 62.2995 39.2402 61.4355V39.2402C39.2402 38.2322 39.7009 37.2492 40.5469 36.6972C42.6094 35.351 46.0178 34.1948 49.4824 34.2188ZM74.3379 34.2188C76.3749 34.2188 80.9603 34.7539 83.9062 39.0469C86.4652 42.7849 85.7573 48.913 83.9062 51.709C82.8112 53.362 80.542 56.3131 74.332 56.4961C68.122 56.6791 65.3176 53.2238 64.3066 51.8438C63.2956 50.4638 61.1657 44.7522 64.0547 39.4512C66.6887 34.6182 71.4759 34.2188 74.3379 34.2188ZM99.3633 34.2188C101.4 34.2188 105.992 34.7539 108.938 39.0469C111.497 42.7849 110.783 48.913 108.932 51.709C107.837 53.362 105.573 56.3131 99.3633 56.4961C93.1533 56.6791 90.343 53.2238 89.332 51.8438C88.3211 50.4638 86.1911 44.7522 89.0801 39.4512C91.7141 34.6182 96.5013 34.2188 99.3633 34.2188ZM123.744 34.3008C124.598 34.324 125.478 34.4275 126.375 34.6289C133.551 36.2399 133.506 42.3633 133.506 42.3633V54.9375H133.5C133.5 55.8015 132.8 56.5079 131.936 56.5079H128.531C127.667 56.5079 126.967 55.8015 126.967 54.9375V43.5586C126.37 37.7116 119.654 40.7989 119.654 40.7989V54.9375C119.654 55.8015 118.954 56.5079 118.09 56.5079H114.645C113.781 56.5079 113.08 55.8015 113.08 54.9375V37.8047C113.08 37.8047 117.765 34.138 123.744 34.3008ZM73.8457 39.7852C73.8457 39.7852 69.4088 39.7876 69.3398 45.4336C69.2708 51.0796 74.0801 51.0879 74.0801 51.0879C74.0801 51.0879 78.9228 51.4234 78.9258 45.3574C78.9258 39.4624 73.8457 39.7852 73.8457 39.7852ZM98.8711 39.7852C98.8711 39.7852 94.4342 39.7876 94.3652 45.4336C94.2962 51.0796 99.1055 51.0879 99.1055 51.0879C99.1055 51.0879 103.948 51.4234 103.951 45.3574C103.954 39.4624 98.8711 39.7852 98.8711 39.7852ZM49.3769 39.9023C48.2493 39.8 46.9354 39.8989 45.7969 40.418V50.2617C45.7969 50.2617 51.2876 52.6757 53.3906 48.4277C55.4966 44.1797 52.9419 41.3829 51.8379 40.5879C51.4479 40.3074 50.5046 40.0047 49.3769 39.9023Z" fill="#989898"/>
</svg>
