<svg width="150" height="90" viewBox="0 0 150 90" fill="none" xmlns="http://www.w3.org/2000/svg">
<path d="M0 0H150V6H0V0ZM0 84H150V90H0V84ZM47.166 31.107H46.977L46.962 31.167H41.616H41.517H40.809C36.18 31.167 32.127 34.278 30.933 38.748L29.913 42.564H38.571L39.333 39.714C39.354 39.66 39.372 39.612 39.39 39.534C39.414 39.432 39.438 39.33 39.462 39.228L39.789 38.004C40.233 36.621 40.971 35.481 42.777 35.478C44.895 35.478 44.817 39.132 44.328 40.935L44.349 40.944L42.849 46.554H37.503H37.164H36.939C32.166 46.554 27.987 49.761 26.751 54.375L24.489 62.838C23.598 66.168 26.109 69.438 29.556 69.438H29.811L29.79 69.48C32.118 69.558 35.355 67.545 37.779 65.505L36.726 69.441H45.384L53.448 39.288C54.552 35.16 51.441 31.107 47.166 31.107ZM39.072 60.66C37.623 64.203 33.402 63.831 33.966 59.76L35.271 54.882C36.468 51.51 38.436 50.499 41.556 51.159L41.625 51.12L39.072 60.66ZM25.677 46.476H14.799L8.658 69.438H0L14.331 15.858H19.161H22.989H37.023L35.151 23.511H20.943L16.848 38.82H27.549L25.677 46.476ZM89.655 30.924H95.409L76.977 51.777L80.721 37.785C81.804 33.738 85.467 30.924 89.655 30.924ZM99.315 31.56C101.859 32.811 103.371 35.739 102.573 38.718L100.515 46.413H89.82L100.056 26.391L100.101 26.334L99.315 31.56ZM150 31.167L148.509 37.008H143.772L137.37 60.693C137.043 61.905 137.946 63.099 139.203 63.114L141.483 63.138L139.779 69.438H133.428C127.992 69.438 127.503 65.103 128.751 60.39L134.988 37.011H131.535L133.026 31.17H136.545L139.107 21.561L149.124 17.226L145.356 31.17L150 31.167ZM130.017 31.167L119.781 69.438H111.12L112.026 66.048C109.698 67.887 106.821 69.549 104.7 69.477L104.724 69.414C101.148 69.3 98.574 65.895 99.507 62.409L101.655 54.375C101.709 54.168 101.802 53.982 101.868 53.781L107.916 31.164H116.574L109.359 58.143H109.305L108.873 59.754C108.402 63.156 111.27 63.981 113.076 62.097L121.35 31.161H130.017V31.167ZM100.038 48.192L96.348 61.989C95.211 66.237 91.449 69.204 87.093 69.399L82.347 71.931L100.038 48.192ZM71.466 15.858L57.135 69.438H48.477L62.808 15.858H71.466ZM83.49 15.858L69.159 69.438H60.501L74.832 15.858H83.49ZM80.913 69.438C76.542 69.438 73.362 65.295 74.49 61.071L76.761 52.581H87.621L81.735 69.435L80.913 69.438Z" fill="#989898"/>
</svg>
