<svg width="144" height="51" viewBox="0 0 144 51" fill="none" xmlns="http://www.w3.org/2000/svg">
<path d="M9 0L6 3L0 21L3 24H12L3 45L6 51H30L33 48V30H27L33 6V0H9ZM39 0L36 2.77149V36H52.5C52.5 36 63.72 35.745 66 36C65.958 22.887 66 2.77149 66 2.77149L63 0H54V19.5C54 21.156 52.659 22.5 51 22.5C49.341 22.5 48 21.156 48 19.5V0H39ZM72 0L69 3V48L72 51H81V36L84 42H90L93 36V51H101.93L105 48V3L102 0H96L87 18L78 0H72ZM111.023 0L108 2.77149V36H141L144 30L120 0H111.023ZM120 15L126 24L120 27V15ZM36 42V48L39 51H63L66 48V42H36ZM108 42V48L111 51H138L141 48V42H108Z" fill="#989898"/>
</svg>
