<svg width="150" height="95" viewBox="0 0 150 95" fill="none" xmlns="http://www.w3.org/2000/svg">
<g clip-path="url(#clip0_42_222)">
<path d="M35.959 -0.000117867C35.4452 0.00366494 34.9356 0.0919367 34.4766 0.262163C33.5646 0.602616 33 1.22173 33 1.89129V25.2568C33 25.9831 33.6582 26.6495 34.6992 26.9635L88.6992 43.3138C89.1102 43.4386 89.559 43.5022 90 43.5022C90.582 43.5022 91.1631 43.3944 91.6641 43.1845L118.664 31.836C119.534 31.471 120.039 30.8449 119.994 30.1848C119.952 29.5265 119.368 28.9307 118.453 28.611L37.4531 0.239996C36.9881 0.0773351 36.4727 -0.00390067 35.959 -0.000117867ZM36.0762 32.1537C35.55 32.1452 35.0239 32.2265 34.5469 32.3939C33.5929 32.7267 33 33.3567 33 34.0451V92.675C33 94.1124 35.4404 95.0277 37.4414 94.3373L121.488 64.0564C122.424 63.7197 123 63.0952 123 62.4162V37.828C123 37.0563 122.259 36.3626 121.125 36.0732C119.985 35.7857 118.687 35.9587 117.838 36.5128L39 88.8959L62.8653 44.06C63.2643 43.241 62.7399 42.3528 61.5879 41.8989L37.5879 32.4419C37.1244 32.2594 36.6023 32.1623 36.0762 32.1537Z" fill="#989898"/>
</g>
<defs>
<clipPath id="clip0_42_222">
<rect width="150" height="94.5702" fill="white"/>
</clipPath>
</defs>
</svg>
