<svg width="150" height="98" viewBox="0 0 150 98" fill="none" xmlns="http://www.w3.org/2000/svg">
<path d="M28.125 14.3445V14.6545H51.5625V14.3445H28.125ZM98.4375 14.3445V14.6545H121.875V14.3445H98.4375ZM28.125 19.8414V20.7596H51.5625V19.8414H28.125ZM98.4375 19.8414V20.7596H121.875V19.8414H98.4375ZM28.125 25.3384V26.5546H51.5625V25.3384H28.125ZM98.4375 25.3384V26.5546H121.875V25.3384H98.4375ZM28.125 30.8293V32.3556H51.5625V30.8293H28.125ZM98.4375 30.8293V32.3556H121.875V30.8293H98.4375ZM28.125 36.3263V38.1566H51.5625V36.3263H28.125ZM98.4375 36.3263V38.1566H121.875V36.3263H98.4375ZM28.125 41.8173V44.2617H51.5625V41.8173H28.125ZM98.4375 41.8173V44.2617H121.875V41.8173H98.4375ZM28.125 47.3142V50.0627H51.5625V47.3142H28.125ZM98.4375 47.3142V50.0627H121.875V47.3142H98.4375ZM28.125 52.8111V54.6415V55.8637H51.5625V54.9455V52.8111H28.125ZM98.4375 52.8111V54.9455V55.8637H121.875V54.6415V52.8111H98.4375ZM28.5919 58.3021C28.5919 59.5231 29.0662 60.7477 29.5349 61.9687H54.3732C53.4357 60.7477 52.4982 59.5231 52.0294 58.3021H28.5919ZM97.9706 58.3021C97.5018 59.5231 97.0312 60.7477 96.0938 61.9687H120.941C121.41 60.7477 121.875 59.5231 121.875 58.3021H97.9706ZM30.0018 63.7991C30.4706 65.0201 31.4081 66.5428 32.3456 67.7638H62.3474C60.0037 66.848 57.6562 65.3253 56.25 63.7991H30.0018ZM93.75 63.7991C91.875 65.3253 89.9982 66.848 87.1857 67.7638H117.654C118.592 66.5428 119.061 65.0201 119.998 63.7991H93.75ZM33.7463 69.2901C35.1526 70.8163 36.0938 72.3438 37.5 73.5648H112.033C113.908 72.3438 115.316 70.8163 116.254 69.2901H33.7463ZM38.9099 74.787C41.2537 76.6185 44.0625 78.1436 46.875 79.6699H102.658C105.471 78.1436 108.279 76.6185 110.623 74.787H38.9099ZM48.7518 80.2839C56.2518 83.6417 65.1562 85.4709 75 85.4709C84.8438 85.4709 93.7482 83.6417 101.248 80.2839H48.7518Z" fill="#989898"/>
</svg>
