<svg width="36" height="36" viewBox="0 0 36 36" fill="none" xmlns="http://www.w3.org/2000/svg">
<path d="M32 10C32 8.89543 32.8954 8 34 8C35.1046 8 36 8.89543 36 10C36 11.1046 35.1046 12 34 12C32.8954 12 32 11.1046 32 10Z" fill="#E4A30B"/>
<path d="M32 2C32 0.895432 32.8954 2.7141e-07 34 1.74846e-07C35.1046 7.8281e-08 36 0.895432 36 2C36 3.10457 35.1046 4 34 4C32.8954 4 32 3.10457 32 2Z" fill="#E4A30B"/>
<path d="M24 26C24 24.8954 24.8954 24 26 24C27.1046 24 28 24.8954 28 26C28 27.1046 27.1046 28 26 28C24.8954 28 24 27.1046 24 26Z" fill="#E4A30B"/>
<path d="M24 18C24 16.8954 24.8954 16 26 16C27.1046 16 28 16.8954 28 18C28 19.1046 27.1046 20 26 20C24.8954 20 24 19.1046 24 18Z" fill="#E4A30B"/>
<path d="M24 10C24 8.89543 24.8954 8 26 8C27.1046 8 28 8.89543 28 10C28 11.1046 27.1046 12 26 12C24.8954 12 24 11.1046 24 10Z" fill="#E4A30B"/>
<path d="M24 2C24 0.895433 24.8954 9.70792e-07 26 8.74228e-07C27.1046 7.77663e-07 28 0.895432 28 2C28 3.10457 27.1046 4 26 4C24.8954 4 24 3.10457 24 2Z" fill="#E4A30B"/>
<path d="M16 26C16 24.8954 16.8954 24 18 24C19.1046 24 20 24.8954 20 26C20 27.1046 19.1046 28 18 28C16.8954 28 16 27.1046 16 26Z" fill="#E4A30B"/>
<path d="M16 18C16 16.8954 16.8954 16 18 16C19.1046 16 20 16.8954 20 18C20 19.1046 19.1046 20 18 20C16.8954 20 16 19.1046 16 18Z" fill="#E4A30B"/>
<path d="M16 10C16 8.89543 16.8954 8 18 8C19.1046 8 20 8.89543 20 10C20 11.1046 19.1046 12 18 12C16.8954 12 16 11.1046 16 10Z" fill="#E4A30B"/>
<path d="M16 2C16 0.895433 16.8954 1.67017e-06 18 1.57361e-06C19.1046 1.47705e-06 20 0.895433 20 2C20 3.10457 19.1046 4 18 4C16.8954 4 16 3.10457 16 2Z" fill="#E4A30B"/>
<path d="M8 34C8 32.8954 8.89543 32 10 32C11.1046 32 12 32.8954 12 34C12 35.1046 11.1046 36 10 36C8.89543 36 8 35.1046 8 34Z" fill="#E4A30B"/>
<path d="M-1.74846e-07 34C-2.7141e-07 32.8954 0.895431 32 2 32C3.10457 32 4 32.8954 4 34C4 35.1046 3.10457 36 2 36C0.895432 36 -7.8281e-08 35.1046 -1.74846e-07 34Z" fill="#E4A30B"/>
<path d="M8 26C8 24.8954 8.89543 24 10 24C11.1046 24 12 24.8954 12 26C12 27.1046 11.1046 28 10 28C8.89543 28 8 27.1046 8 26Z" fill="#E4A30B"/>
<path d="M-8.74228e-07 26C-9.70792e-07 24.8954 0.89543 24 2 24C3.10457 24 4 24.8954 4 26C4 27.1046 3.10457 28 2 28C0.895431 28 -7.77663e-07 27.1046 -8.74228e-07 26Z" fill="#E4A30B"/>
<path d="M8 18C8 16.8954 8.89543 16 10 16C11.1046 16 12 16.8954 12 18C12 19.1046 11.1046 20 10 20C8.89543 20 8 19.1046 8 18Z" fill="#E4A30B"/>
<path d="M-1.57361e-06 18C-1.67017e-06 16.8954 0.89543 16 2 16C3.10457 16 4 16.8954 4 18C4 19.1046 3.10457 20 2 20C0.89543 20 -1.47705e-06 19.1046 -1.57361e-06 18Z" fill="#E4A30B"/>
<path d="M8 10C8 8.89543 8.89543 8 10 8C11.1046 8 12 8.89543 12 10C12 11.1046 11.1046 12 10 12C8.89543 12 8 11.1046 8 10Z" fill="#E4A30B"/>
<path d="M-2.27299e-06 10C-2.36956e-06 8.89543 0.895429 8 2 8C3.10457 8 4 8.89543 4 10C4 11.1046 3.10457 12 2 12C0.895429 12 -2.17643e-06 11.1046 -2.27299e-06 10Z" fill="#E4A30B"/>
<path d="M8 2C8 0.895434 8.89543 2.36956e-06 10 2.27299e-06C11.1046 2.17643e-06 12 0.895434 12 2C12 3.10457 11.1046 4 10 4C8.89543 4 8 3.10457 8 2Z" fill="#E4A30B"/>
<path d="M-2.97237e-06 2C-3.06894e-06 0.895435 0.895428 3.06894e-06 2 2.97237e-06C3.10457 2.87581e-06 4 0.895434 4 2C4 3.10457 3.10457 4 2 4C0.895429 4 -2.87581e-06 3.10457 -2.97237e-06 2Z" fill="#E4A30B"/>
</svg>
