<svg width="36" height="36" viewBox="0 0 36 36" fill="none" xmlns="http://www.w3.org/2000/svg">
<path d="M26 32C27.1046 32 28 32.8954 28 34C28 35.1046 27.1046 36 26 36C24.8954 36 24 35.1046 24 34C24 32.8954 24.8954 32 26 32Z" fill="#808080" fill-opacity="0.3"/>
<path d="M34 32C35.1046 32 36 32.8954 36 34C36 35.1046 35.1046 36 34 36C32.8954 36 32 35.1046 32 34C32 32.8954 32.8954 32 34 32Z" fill="#808080" fill-opacity="0.3"/>
<path d="M10 24C11.1046 24 12 24.8954 12 26C12 27.1046 11.1046 28 10 28C8.89543 28 8 27.1046 8 26C8 24.8954 8.89543 24 10 24Z" fill="#808080" fill-opacity="0.3"/>
<path d="M18 24C19.1046 24 20 24.8954 20 26C20 27.1046 19.1046 28 18 28C16.8954 28 16 27.1046 16 26C16 24.8954 16.8954 24 18 24Z" fill="#808080" fill-opacity="0.3"/>
<path d="M26 24C27.1046 24 28 24.8954 28 26C28 27.1046 27.1046 28 26 28C24.8954 28 24 27.1046 24 26C24 24.8954 24.8954 24 26 24Z" fill="#808080" fill-opacity="0.3"/>
<path d="M34 24C35.1046 24 36 24.8954 36 26C36 27.1046 35.1046 28 34 28C32.8954 28 32 27.1046 32 26C32 24.8954 32.8954 24 34 24Z" fill="#808080" fill-opacity="0.3"/>
<path d="M10 16C11.1046 16 12 16.8954 12 18C12 19.1046 11.1046 20 10 20C8.89543 20 8 19.1046 8 18C8 16.8954 8.89543 16 10 16Z" fill="#808080" fill-opacity="0.3"/>
<path d="M18 16C19.1046 16 20 16.8954 20 18C20 19.1046 19.1046 20 18 20C16.8954 20 16 19.1046 16 18C16 16.8954 16.8954 16 18 16Z" fill="#808080" fill-opacity="0.3"/>
<path d="M26 16C27.1046 16 28 16.8954 28 18C28 19.1046 27.1046 20 26 20C24.8954 20 24 19.1046 24 18C24 16.8954 24.8954 16 26 16Z" fill="#808080" fill-opacity="0.3"/>
<path d="M34 16C35.1046 16 36 16.8954 36 18C36 19.1046 35.1046 20 34 20C32.8954 20 32 19.1046 32 18C32 16.8954 32.8954 16 34 16Z" fill="#808080" fill-opacity="0.3"/>
<path d="M2 8C3.10457 8 4 8.89543 4 10C4 11.1046 3.10457 12 2 12C0.895429 12 -1.08821e-06 11.1046 -1.1365e-06 10C-1.18478e-06 8.89543 0.895429 8 2 8Z" fill="#808080" fill-opacity="0.3"/>
<path d="M2 -8.74228e-08C3.10457 -1.35705e-07 4 0.89543 4 2C4 3.10457 3.10457 4 2 4C0.895429 4 -1.4379e-06 3.10457 -1.48619e-06 2C-1.53447e-06 0.89543 0.895429 -3.91405e-08 2 -8.74228e-08Z" fill="#808080" fill-opacity="0.3"/>
<path d="M10 8C11.1046 8 12 8.89543 12 10C12 11.1046 11.1046 12 10 12C8.89543 12 8 11.1046 8 10C8 8.89543 8.89543 8 10 8Z" fill="#808080" fill-opacity="0.3"/>
<path d="M10 -4.37114e-07C11.1046 -4.85396e-07 12 0.89543 12 2C12 3.10457 11.1046 4 10 4C8.89543 4 8 3.10457 8 2C8 0.89543 8.89543 -3.88832e-07 10 -4.37114e-07Z" fill="#808080" fill-opacity="0.3"/>
<path d="M18 8C19.1046 8 20 8.89543 20 10C20 11.1046 19.1046 12 18 12C16.8954 12 16 11.1046 16 10C16 8.89543 16.8954 8 18 8Z" fill="#808080" fill-opacity="0.3"/>
<path d="M18 -7.86805e-07C19.1046 -8.35087e-07 20 0.89543 20 2C20 3.10457 19.1046 4 18 4C16.8954 4 16 3.10457 16 2C16 0.89543 16.8954 -7.38523e-07 18 -7.86805e-07Z" fill="#808080" fill-opacity="0.3"/>
<path d="M26 8C27.1046 8 28 8.89543 28 10C28 11.1046 27.1046 12 26 12C24.8954 12 24 11.1046 24 10C24 8.89543 24.8954 8 26 8Z" fill="#808080" fill-opacity="0.3"/>
<path d="M26 -1.1365e-06C27.1046 -1.18478e-06 28 0.895429 28 2C28 3.10457 27.1046 4 26 4C24.8954 4 24 3.10457 24 2C24 0.895429 24.8954 -1.08821e-06 26 -1.1365e-06Z" fill="#808080" fill-opacity="0.3"/>
<path d="M34 8C35.1046 8 36 8.89543 36 10C36 11.1046 35.1046 12 34 12C32.8954 12 32 11.1046 32 10C32 8.89543 32.8954 8 34 8Z" fill="#808080" fill-opacity="0.3"/>
<path d="M34 -1.48619e-06C35.1046 -1.53447e-06 36 0.895429 36 2C36 3.10457 35.1046 4 34 4C32.8954 4 32 3.10457 32 2C32 0.895429 32.8954 -1.4379e-06 34 -1.48619e-06Z" fill="#808080" fill-opacity="0.3"/>
</svg>
