<svg width="36" height="36" viewBox="0 0 36 36" fill="none" xmlns="http://www.w3.org/2000/svg">
<path d="M10 4C8.89543 4 8 3.10457 8 2C8 0.895431 8.89543 3.23219e-07 10 3.10047e-07C11.1046 2.96875e-07 12 0.895431 12 2C12 3.10457 11.1046 4 10 4Z" fill="#808080" fill-opacity="0.3"/>
<path d="M2 4C0.89543 4 3.70216e-08 3.10457 2.38498e-08 2C1.06779e-08 0.895431 0.89543 4.18618e-07 2 4.05446e-07C3.10457 3.92274e-07 4 0.895431 4 2C4 3.10457 3.10457 4 2 4Z" fill="#808080" fill-opacity="0.3"/>
<path d="M26 12C24.8954 12 24 11.1046 24 10C24 8.89543 24.8954 8 26 8C27.1046 8 28 8.89543 28 10C28 11.1046 27.1046 12 26 12Z" fill="#808080" fill-opacity="0.3"/>
<path d="M18 12C16.8954 12 16 11.1046 16 10C16 8.89543 16.8954 8 18 8C19.1046 8 20 8.89543 20 10C20 11.1046 19.1046 12 18 12Z" fill="#808080" fill-opacity="0.3"/>
<path d="M10 12C8.89543 12 8 11.1046 8 10C8 8.89543 8.89543 8 10 8C11.1046 8 12 8.89543 12 10C12 11.1046 11.1046 12 10 12Z" fill="#808080" fill-opacity="0.3"/>
<path d="M2 12C0.895431 12 1.32421e-07 11.1046 1.19249e-07 10C1.06077e-07 8.89543 0.895431 8 2 8C3.10457 8 4 8.89543 4 10C4 11.1046 3.10457 12 2 12Z" fill="#808080" fill-opacity="0.3"/>
<path d="M26 20C24.8954 20 24 19.1046 24 18C24 16.8954 24.8954 16 26 16C27.1046 16 28 16.8954 28 18C28 19.1046 27.1046 20 26 20Z" fill="#808080" fill-opacity="0.3"/>
<path d="M18 20C16.8954 20 16 19.1046 16 18C16 16.8954 16.8954 16 18 16C19.1046 16 20 16.8954 20 18C20 19.1046 19.1046 20 18 20Z" fill="#808080" fill-opacity="0.3"/>
<path d="M10 20C8.89543 20 8 19.1046 8 18C8 16.8954 8.89543 16 10 16C11.1046 16 12 16.8954 12 18C12 19.1046 11.1046 20 10 20Z" fill="#808080" fill-opacity="0.3"/>
<path d="M2 20C0.895431 20 2.2782e-07 19.1046 2.14648e-07 18C2.01476e-07 16.8954 0.895431 16 2 16C3.10457 16 4 16.8954 4 18C4 19.1046 3.10457 20 2 20Z" fill="#808080" fill-opacity="0.3"/>
<path d="M34 28C32.8954 28 32 27.1046 32 26C32 24.8954 32.8954 24 34 24C35.1046 24 36 24.8954 36 26C36 27.1046 35.1046 28 34 28Z" fill="#808080" fill-opacity="0.3"/>
<path d="M34 36C32.8954 36 32 35.1046 32 34C32 32.8954 32.8954 32 34 32C35.1046 32 36 32.8954 36 34C36 35.1046 35.1046 36 34 36Z" fill="#808080" fill-opacity="0.3"/>
<path d="M26 28C24.8954 28 24 27.1046 24 26C24 24.8954 24.8954 24 26 24C27.1046 24 28 24.8954 28 26C28 27.1046 27.1046 28 26 28Z" fill="#808080" fill-opacity="0.3"/>
<path d="M26 36C24.8954 36 24 35.1046 24 34C24 32.8954 24.8954 32 26 32C27.1046 32 28 32.8954 28 34C28 35.1046 27.1046 36 26 36Z" fill="#808080" fill-opacity="0.3"/>
<path d="M18 28C16.8954 28 16 27.1046 16 26C16 24.8954 16.8954 24 18 24C19.1046 24 20 24.8954 20 26C20 27.1046 19.1046 28 18 28Z" fill="#808080" fill-opacity="0.3"/>
<path d="M18 36C16.8954 36 16 35.1046 16 34C16 32.8954 16.8954 32 18 32C19.1046 32 20 32.8954 20 34C20 35.1046 19.1046 36 18 36Z" fill="#808080" fill-opacity="0.3"/>
<path d="M10 28C8.89543 28 8 27.1046 8 26C8 24.8954 8.89543 24 10 24C11.1046 24 12 24.8954 12 26C12 27.1046 11.1046 28 10 28Z" fill="#808080" fill-opacity="0.3"/>
<path d="M10 36C8.89543 36 8 35.1046 8 34C8 32.8954 8.89543 32 10 32C11.1046 32 12 32.8954 12 34C12 35.1046 11.1046 36 10 36Z" fill="#808080" fill-opacity="0.3"/>
<path d="M2 28C0.895431 28 3.23219e-07 27.1046 3.10047e-07 26C2.96875e-07 24.8954 0.895431 24 2 24C3.10457 24 4 24.8954 4 26C4 27.1046 3.10457 28 2 28Z" fill="#808080" fill-opacity="0.3"/>
<path d="M2 36C0.895431 36 4.18618e-07 35.1046 4.05446e-07 34C3.92274e-07 32.8954 0.895431 32 2 32C3.10457 32 4 32.8954 4 34C4 35.1046 3.10457 36 2 36Z" fill="#808080" fill-opacity="0.3"/>
</svg>
