<svg width="36" height="36" viewBox="0 0 36 36" fill="none" xmlns="http://www.w3.org/2000/svg">
<path d="M4 26C4 27.1046 3.10457 28 2 28C0.89543 28 0 27.1046 0 26C0 24.8954 0.89543 24 2 24C3.10457 24 4 24.8954 4 26Z" fill="#E4A30B"/>
<path d="M4 34C4 35.1046 3.10457 36 2 36C0.89543 36 0 35.1046 0 34C0 32.8954 0.89543 32 2 32C3.10457 32 4 32.8954 4 34Z" fill="#E4A30B"/>
<path d="M12 10C12 11.1046 11.1046 12 10 12C8.89543 12 8 11.1046 8 10C8 8.89543 8.89543 8 10 8C11.1046 8 12 8.89543 12 10Z" fill="#E4A30B"/>
<path d="M12 18C12 19.1046 11.1046 20 10 20C8.89543 20 8 19.1046 8 18C8 16.8954 8.89543 16 10 16C11.1046 16 12 16.8954 12 18Z" fill="#E4A30B"/>
<path d="M12 26C12 27.1046 11.1046 28 10 28C8.89543 28 8 27.1046 8 26C8 24.8954 8.89543 24 10 24C11.1046 24 12 24.8954 12 26Z" fill="#E4A30B"/>
<path d="M12 34C12 35.1046 11.1046 36 10 36C8.89543 36 8 35.1046 8 34C8 32.8954 8.89543 32 10 32C11.1046 32 12 32.8954 12 34Z" fill="#E4A30B"/>
<path d="M20 10C20 11.1046 19.1046 12 18 12C16.8954 12 16 11.1046 16 10C16 8.89543 16.8954 8 18 8C19.1046 8 20 8.89543 20 10Z" fill="#E4A30B"/>
<path d="M20 18C20 19.1046 19.1046 20 18 20C16.8954 20 16 19.1046 16 18C16 16.8954 16.8954 16 18 16C19.1046 16 20 16.8954 20 18Z" fill="#E4A30B"/>
<path d="M20 26C20 27.1046 19.1046 28 18 28C16.8954 28 16 27.1046 16 26C16 24.8954 16.8954 24 18 24C19.1046 24 20 24.8954 20 26Z" fill="#E4A30B"/>
<path d="M20 34C20 35.1046 19.1046 36 18 36C16.8954 36 16 35.1046 16 34C16 32.8954 16.8954 32 18 32C19.1046 32 20 32.8954 20 34Z" fill="#E4A30B"/>
<path d="M28 2C28 3.10457 27.1046 4 26 4C24.8954 4 24 3.10457 24 2C24 0.89543 24.8954 0 26 0C27.1046 0 28 0.89543 28 2Z" fill="#E4A30B"/>
<path d="M36 2C36 3.10457 35.1046 4 34 4C32.8954 4 32 3.10457 32 2C32 0.89543 32.8954 0 34 0C35.1046 0 36 0.89543 36 2Z" fill="#E4A30B"/>
<path d="M28 10C28 11.1046 27.1046 12 26 12C24.8954 12 24 11.1046 24 10C24 8.89543 24.8954 8 26 8C27.1046 8 28 8.89543 28 10Z" fill="#E4A30B"/>
<path d="M36 10C36 11.1046 35.1046 12 34 12C32.8954 12 32 11.1046 32 10C32 8.89543 32.8954 8 34 8C35.1046 8 36 8.89543 36 10Z" fill="#E4A30B"/>
<path d="M28 18C28 19.1046 27.1046 20 26 20C24.8954 20 24 19.1046 24 18C24 16.8954 24.8954 16 26 16C27.1046 16 28 16.8954 28 18Z" fill="#E4A30B"/>
<path d="M36 18C36 19.1046 35.1046 20 34 20C32.8954 20 32 19.1046 32 18C32 16.8954 32.8954 16 34 16C35.1046 16 36 16.8954 36 18Z" fill="#E4A30B"/>
<path d="M28 26C28 27.1046 27.1046 28 26 28C24.8954 28 24 27.1046 24 26C24 24.8954 24.8954 24 26 24C27.1046 24 28 24.8954 28 26Z" fill="#E4A30B"/>
<path d="M36 26C36 27.1046 35.1046 28 34 28C32.8954 28 32 27.1046 32 26C32 24.8954 32.8954 24 34 24C35.1046 24 36 24.8954 36 26Z" fill="#E4A30B"/>
<path d="M28 34C28 35.1046 27.1046 36 26 36C24.8954 36 24 35.1046 24 34C24 32.8954 24.8954 32 26 32C27.1046 32 28 32.8954 28 34Z" fill="#E4A30B"/>
<path d="M36 34C36 35.1046 35.1046 36 34 36C32.8954 36 32 35.1046 32 34C32 32.8954 32.8954 32 34 32C35.1046 32 36 32.8954 36 34Z" fill="#E4A30B"/>
</svg>
