<svg width="40" height="40" viewBox="0 0 40 40" fill="none" xmlns="http://www.w3.org/2000/svg">
<path d="M9.71175 28C8.10392 28 6.73333 27.425 5.6 26.275C4.46667 25.125 3.9 23.75 3.9 22.15H0V16.15C0 13.9833 0.75 12.1417 2.25 10.625C3.75 9.10833 5.58333 8.35 7.75 8.35H15.5V19.15H23.55L30.9 9.9V3H24.75V0H30.9C31.725 0 32.4312 0.29375 33.0187 0.88125C33.6063 1.46875 33.9 2.175 33.9 3V10.95L25 22.15H15.5C15.5 23.75 14.9372 25.125 13.8117 26.275C12.6863 27.425 11.3196 28 9.71175 28ZM9.7 25C10.4667 25 11.125 24.7167 11.675 24.15C12.225 23.5833 12.5 22.9167 12.5 22.15H6.9C6.9 22.9167 7.175 23.5833 7.725 24.15C8.275 24.7167 8.93333 25 9.7 25ZM6 5.35V2.35H15.5V5.35H6ZM34.2118 28C32.6039 28 31.2333 27.4373 30.1 26.3118C28.9667 25.1863 28.4 23.8196 28.4 22.2118C28.4 20.6039 28.9628 19.2333 30.0883 18.1C31.2137 16.9667 32.5804 16.4 34.1883 16.4C35.7961 16.4 37.1667 16.9628 38.3 18.0883C39.4333 19.2137 40 20.5804 40 22.1883C40 23.7961 39.4372 25.1667 38.3117 26.3C37.1863 27.4333 35.8196 28 34.2118 28ZM34.2 25C34.9667 25 35.625 24.725 36.175 24.175C36.725 23.625 37 22.9667 37 22.2C37 21.4333 36.725 20.775 36.175 20.225C35.625 19.675 34.9667 19.4 34.2 19.4C33.4333 19.4 32.775 19.675 32.225 20.225C31.675 20.775 31.4 21.4333 31.4 22.2C31.4 22.9667 31.675 23.625 32.225 24.175C32.775 24.725 33.4333 25 34.2 25ZM22 40L10.55 34.2H18.2V30.35L29.65 36.1H22V40ZM3 19.15H12.5V11.35H7.75C6.41667 11.35 5.29167 11.82 4.375 12.76C3.45833 13.7 3 14.83 3 16.15V19.15Z" fill="#F2A60C"/>
</svg>
