<svg width="32" height="42" viewBox="0 0 32 42" fill="none" xmlns="http://www.w3.org/2000/svg">
<path d="M3 42C2.175 42 1.46875 41.7062 0.88125 41.1188C0.29375 40.5312 0 39.825 0 39V17.3C0 16.475 0.29375 15.7688 0.88125 15.1813C1.46875 14.5938 2.175 14.3 3 14.3H6.5V9.5C6.5 6.87167 7.42677 4.63125 9.2803 2.77875C11.1338 0.92625 13.3755 0 16.0053 0C18.6351 0 20.875 0.92625 22.725 2.77875C24.575 4.63125 25.5 6.87167 25.5 9.5V14.3H29C29.825 14.3 30.5312 14.5938 31.1187 15.1813C31.7063 15.7688 32 16.475 32 17.3V39C32 39.825 31.7063 40.5312 31.1187 41.1188C30.5312 41.7062 29.825 42 29 42H3ZM3 39H29V17.3H3V39ZM16.0084 32C17.0695 32 17.975 31.6328 18.725 30.8985C19.475 30.1641 19.85 29.2813 19.85 28.25C19.85 27.25 19.4722 26.3417 18.7166 25.525C17.961 24.7083 17.0527 24.3 15.9916 24.3C14.9305 24.3 14.025 24.7083 13.275 25.525C12.525 26.3417 12.15 27.2583 12.15 28.275C12.15 29.2917 12.5278 30.1667 13.2834 30.9C14.039 31.6333 14.9473 32 16.0084 32ZM9.5 14.3H22.5V9.5C22.5 7.69443 21.8686 6.15972 20.6059 4.89585C19.3431 3.63195 17.8098 3 16.0059 3C14.202 3 12.6667 3.63195 11.4 4.89585C10.1333 6.15972 9.5 7.69443 9.5 9.5V14.3Z" fill="#FFBB00"/>
</svg>
