<svg width="34" height="34" viewBox="0 0 34 34" fill="none" xmlns="http://www.w3.org/2000/svg">
<path d="M4.65 29.2333C3.19687 27.7333 2.05858 26 1.23515 24.0333C0.411717 22.0667 0 20.05 0 17.9833C0 15.55 0.425 13.325 1.275 11.3083C2.125 9.29167 3.4 7.43333 5.1 5.73333C6.26667 4.56667 7.71667 3.58333 9.45 2.78333C11.1833 1.98333 13.225 1.35833 15.575 0.908333C17.925 0.458333 20.5833 0.175 23.55 0.0583333C26.5167 -0.0583333 29.8167 0 33.45 0.233333C33.7167 3.83333 33.8083 7.125 33.725 10.1083C33.6417 13.0917 33.375 15.7708 32.925 18.1458C32.475 20.5208 31.8417 22.5969 31.025 24.374C30.2083 26.1511 29.2 27.6375 28 28.8333C26.3 30.5333 24.4667 31.8167 22.5 32.6833C20.5333 33.55 18.4333 33.9833 16.2 33.9833C13.9 33.9833 11.7917 33.5917 9.875 32.8083C7.95833 32.025 6.21667 30.8333 4.65 29.2333ZM9.8 29.2333C10.6333 29.8 11.6 30.2333 12.7 30.5333C13.8 30.8333 14.9654 30.9833 16.1961 30.9833C17.9654 30.9833 19.6833 30.6167 21.35 29.8833C23.0167 29.15 24.5333 28.0833 25.9 26.6833C26.8 25.7833 27.5667 24.6083 28.2 23.1583C28.8333 21.7083 29.35 19.9917 29.75 18.0083C30.15 16.025 30.4167 13.7833 30.55 11.2833C30.6833 8.78333 30.6833 6.03333 30.55 3.03333C27.4167 2.96667 24.6083 3.00833 22.125 3.15833C19.6417 3.30833 17.45 3.58333 15.55 3.98333C13.65 4.38333 12.0167 4.89167 10.65 5.50833C9.28333 6.125 8.16667 6.88333 7.3 7.78333C5.9 9.21667 4.83333 10.7333 4.1 12.3333C3.36667 13.9333 3 15.5667 3 17.2333C3 18.8333 3.34167 20.5083 4.025 22.2583C4.70833 24.0083 5.55 25.4167 6.55 26.4833C8.31667 23.2167 10.4333 20.2833 12.9 17.6833C15.3667 15.0833 17.9833 13.0333 20.75 11.5333C17.85 14.0333 15.5 16.7417 13.7 19.6583C11.9 22.575 10.6 25.7667 9.8 29.2333Z" fill="#FFBB00"/>
</svg>
