<svg width="40" height="34" viewBox="0 0 40 34" fill="none" xmlns="http://www.w3.org/2000/svg">
<path d="M0 33.4V30.4C0.933333 30.3 1.73333 30.0333 2.4 29.6C3.06667 29.1667 3.73333 28.7083 4.4 28.225C5.06667 27.7417 5.81667 27.3167 6.65 26.95C7.48333 26.5833 8.51667 26.4 9.75 26.4C10.9833 26.4 12.0333 26.6083 12.9 27.025C13.7667 27.4417 14.5583 27.9 15.275 28.4C15.9917 28.9 16.7167 29.3583 17.45 29.775C18.1833 30.1917 19.0333 30.4 20 30.4C20.9667 30.4 21.8167 30.1917 22.55 29.775C23.2833 29.3583 24.0083 28.9 24.725 28.4C25.4417 27.9 26.2333 27.4417 27.1 27.025C27.9667 26.6083 29.0167 26.4 30.25 26.4C31.4833 26.4 32.5083 26.5833 33.325 26.95C34.1417 27.3167 34.8917 27.7417 35.575 28.225C36.2583 28.7083 36.9333 29.1667 37.6 29.6C38.2667 30.0333 39.0667 30.3 40 30.4V33.4C38.8333 33.3333 37.8583 33.0917 37.075 32.675C36.2917 32.2583 35.5583 31.8083 34.875 31.325C34.1917 30.8417 33.5 30.4 32.8 30C32.1 29.6 31.25 29.4 30.25 29.4C29.25 29.4 28.375 29.6083 27.625 30.025C26.875 30.4417 26.1417 30.9 25.425 31.4C24.7083 31.9 23.925 32.3583 23.075 32.775C22.225 33.1917 21.2 33.4 20 33.4C18.8 33.4 17.775 33.1917 16.925 32.775C16.075 32.3583 15.2917 31.9 14.575 31.4C13.8583 30.9 13.125 30.4417 12.375 30.025C11.625 29.6083 10.75 29.4 9.75 29.4C8.75 29.4 7.89167 29.6 7.175 30C6.45833 30.4 5.76667 30.8417 5.1 31.325C4.43333 31.8083 3.70833 32.2583 2.925 32.675C2.14167 33.0917 1.16667 33.3333 0 33.4ZM0 24.6V21.6C0.933333 21.5 1.73333 21.2333 2.4 20.8C3.06667 20.3667 3.73333 19.9083 4.4 19.425C5.06667 18.9417 5.81667 18.5167 6.65 18.15C7.48333 17.7833 8.51667 17.6 9.75 17.6C10.9833 17.6 12.0333 17.8083 12.9 18.225C13.7667 18.6417 14.5583 19.1 15.275 19.6C15.9917 20.1 16.7167 20.5583 17.45 20.975C18.1833 21.3917 19.0333 21.6 20 21.6C20.9667 21.6 21.8167 21.3917 22.55 20.975C23.2833 20.5583 24.0083 20.1 24.725 19.6C25.4417 19.1 26.2333 18.6417 27.1 18.225C27.9667 17.8083 29.0167 17.6 30.25 17.6C31.4833 17.6 32.5083 17.7833 33.325 18.15C34.1417 18.5167 34.8917 18.9417 35.575 19.425C36.2583 19.9083 36.9333 20.3667 37.6 20.8C38.2667 21.2333 39.0667 21.5 40 21.6V24.6C38.8333 24.4667 37.8583 24.1833 37.075 23.75C36.2917 23.3167 35.5583 22.8667 34.875 22.4C34.1917 21.9333 33.5 21.5167 32.8 21.15C32.1 20.7833 31.25 20.6 30.25 20.6C29.25 20.6 28.3833 20.8083 27.65 21.225C26.9167 21.6417 26.1833 22.1 25.45 22.6C24.7167 23.1 23.925 23.5583 23.075 23.975C22.225 24.3917 21.2 24.6 20 24.6C18.8 24.6 17.775 24.3917 16.925 23.975C16.075 23.5583 15.2917 23.1 14.575 22.6C13.8583 22.1 13.125 21.6417 12.375 21.225C11.625 20.8083 10.75 20.6 9.75 20.6C8.75 20.6 7.89167 20.8 7.175 21.2C6.45833 21.6 5.76667 22.0417 5.1 22.525C4.43333 23.0083 3.70833 23.4583 2.925 23.875C2.14167 24.2917 1.16667 24.5333 0 24.6ZM0 15.8V12.8C0.933333 12.7333 1.73333 12.4917 2.4 12.075C3.06667 11.6583 3.73333 11.2083 4.4 10.725C5.06667 10.2417 5.81667 9.8 6.65 9.4C7.48333 9 8.51667 8.8 9.75 8.8C10.9833 8.8 12.0333 9.00833 12.9 9.425C13.7667 9.84167 14.5583 10.3 15.275 10.8C15.9917 11.3 16.7167 11.7583 17.45 12.175C18.1833 12.5917 19.0333 12.8 20 12.8C20.9667 12.8 21.8167 12.5917 22.55 12.175C23.2833 11.7583 24.0083 11.3 24.725 10.8C25.4417 10.3 26.2333 9.84167 27.1 9.425C27.9667 9.00833 29.0167 8.8 30.25 8.8C31.4833 8.8 32.5083 9 33.325 9.4C34.1417 9.8 34.8917 10.2417 35.575 10.725C36.2583 11.2083 36.9333 11.6583 37.6 12.075C38.2667 12.4917 39.0667 12.7333 40 12.8V15.8C38.8333 15.7333 37.8583 15.4917 37.075 15.075C36.2917 14.6583 35.5583 14.2083 34.875 13.725C34.1917 13.2417 33.5 12.8 32.8 12.4C32.1 12 31.25 11.8 30.25 11.8C29.25 11.8 28.375 12.0083 27.625 12.425C26.875 12.8417 26.1417 13.3 25.425 13.8C24.7083 14.3 23.925 14.7583 23.075 15.175C22.225 15.5917 21.2 15.8 20 15.8C18.8 15.8 17.775 15.5917 16.925 15.175C16.075 14.7583 15.2917 14.3 14.575 13.8C13.8583 13.3 13.125 12.8417 12.375 12.425C11.625 12.0083 10.75 11.8 9.75 11.8C8.75 11.8 7.89167 12 7.175 12.4C6.45833 12.8 5.76667 13.2417 5.1 13.725C4.43333 14.2083 3.70833 14.6583 2.925 15.075C2.14167 15.4917 1.16667 15.7333 0 15.8ZM0 7V4C0.933333 3.9 1.73333 3.63333 2.4 3.2C3.06667 2.76667 3.73333 2.30833 4.4 1.825C5.06667 1.34167 5.81667 0.916667 6.65 0.55C7.48333 0.183333 8.51667 0 9.75 0C10.9833 0 12.0333 0.208333 12.9 0.625C13.7667 1.04167 14.5583 1.5 15.275 2C15.9917 2.5 16.7167 2.95833 17.45 3.375C18.1833 3.79167 19.0333 4 20 4C20.9667 4 21.8167 3.79167 22.55 3.375C23.2833 2.95833 24.0083 2.5 24.725 2C25.4417 1.5 26.2333 1.04167 27.1 0.625C27.9667 0.208333 29.0167 0 30.25 0C31.4833 0 32.5083 0.183333 33.325 0.55C34.1417 0.916667 34.8917 1.34167 35.575 1.825C36.2583 2.30833 36.9333 2.76667 37.6 3.2C38.2667 3.63333 39.0667 3.9 40 4V7C38.8333 6.93333 37.8583 6.69167 37.075 6.275C36.2917 5.85833 35.5583 5.40833 34.875 4.925C34.1917 4.44167 33.5 4 32.8 3.6C32.1 3.2 31.25 3 30.25 3C29.25 3 28.375 3.20833 27.625 3.625C26.875 4.04167 26.1417 4.5 25.425 5C24.7083 5.5 23.925 5.95833 23.075 6.375C22.225 6.79167 21.2 7 20 7C18.8 7 17.775 6.79167 16.925 6.375C16.075 5.95833 15.2917 5.5 14.575 5C13.8583 4.5 13.125 4.04167 12.375 3.625C11.625 3.20833 10.75 3 9.75 3C8.75 3 7.89167 3.2 7.175 3.6C6.45833 4 5.76667 4.44167 5.1 4.925C4.43333 5.40833 3.70833 5.85833 2.925 6.275C2.14167 6.69167 1.16667 6.93333 0 7Z" fill="#FFBB00"/>
</svg>
