<svg width="40" height="32" viewBox="0 0 40 32" fill="none" xmlns="http://www.w3.org/2000/svg">
<path d="M16.35 23.7C17.1167 24.4667 18.225 24.825 19.675 24.775C21.125 24.725 22.1833 24.1833 22.85 23.15L33.65 6.2L16.9 17.15C15.9 17.8167 15.3667 18.8833 15.3 20.35C15.2333 21.8167 15.5833 22.9333 16.35 23.7ZM19.9 0C21.8 0 23.7833 0.308333 25.85 0.925C27.9167 1.54167 29.9 2.6 31.8 4.1L29.2 5.95C27.7 4.95 26.0917 4.20833 24.375 3.725C22.6583 3.24167 21.1663 3 19.8989 3C15.2165 3 11.2294 4.67025 7.93765 8.01075C4.64588 11.3513 3 15.3974 3 20.1491C3 21.6497 3.20833 23.1667 3.625 24.7C4.04167 26.2333 4.63333 27.65 5.4 28.95H34.35C35.0833 27.75 35.6667 26.35 36.1 24.75C36.5333 23.15 36.75 21.5833 36.75 20.05C36.75 18.65 36.5417 17.1417 36.125 15.525C35.7083 13.9083 34.9667 12.4167 33.9 11.05L35.85 8.45C37.1167 10.3167 38.0667 12.1917 38.7 14.075C39.3333 15.9583 39.6833 17.85 39.75 19.75C39.8167 21.75 39.6167 23.6333 39.15 25.4C38.6833 27.1667 38 28.8 37.1 30.3C36.7 31.0667 36.275 31.5333 35.825 31.7C35.375 31.8667 34.8167 31.95 34.15 31.95H5.6C5.03333 31.95 4.475 31.8083 3.925 31.525C3.375 31.2417 2.96667 30.8333 2.7 30.3C1.83333 28.7 1.16667 27.075 0.7 25.425C0.233333 23.775 0 22.0167 0 20.15C0 17.3833 0.525 14.775 1.575 12.325C2.625 9.875 4.05 7.74167 5.85 5.925C7.65 4.10833 9.76133 2.66667 12.184 1.6C14.6067 0.533333 17.1787 0 19.9 0Z" fill="#FFBB00"/>
</svg>
