<svg width="44" height="44" viewBox="0 0 44 44" fill="none" xmlns="http://www.w3.org/2000/svg">
<path d="M22.9 40.05V43.3H20.9V40.05V39.5985L20.4508 39.5526C15.99 39.0967 12.2996 37.3925 9.35355 34.4464C6.4075 31.5004 4.70326 27.81 4.24741 23.3492L4.20151 22.9H3.75H0.5V20.9H3.75H4.20151L4.24741 20.4508C4.70326 15.99 6.4075 12.2996 9.35355 9.35355C12.2996 6.4075 15.99 4.70326 20.4508 4.24741L20.9 4.20151V3.75V0.5H22.9V3.75V4.20151L23.3492 4.24741C27.81 4.70326 31.5004 6.4075 34.4464 9.35355C37.3925 12.2996 39.0967 15.99 39.5526 20.4508L39.5985 20.9H40.05H43.3V22.9H40.05H39.5985L39.5526 23.3492C39.0967 27.81 37.3925 31.5004 34.4464 34.4464C31.5004 37.3925 27.81 39.0967 23.3492 39.5526L22.9 39.5985V40.05ZM21.9 37.6C26.2011 37.6 29.9028 36.0543 32.9786 32.9786C36.0543 29.9028 37.6 26.2011 37.6 21.9C37.6 17.5989 36.0543 13.8972 32.9786 10.8214C29.9028 7.74567 26.2011 6.2 21.9 6.2C17.5989 6.2 13.8972 7.74567 10.8214 10.8214C7.74567 13.8972 6.2 17.5989 6.2 21.9C6.2 26.2011 7.74567 29.9028 10.8214 32.9786C13.8972 36.0543 17.5989 37.6 21.9 37.6Z" fill="#FFBB00" stroke="black"/>
</svg>
