<svg width="137" height="39" viewBox="0 0 137 39" fill="none" xmlns="http://www.w3.org/2000/svg">
<path d="M0 37.6327V2.22216H5.58434V15.5357H5.75484C5.99951 14.8211 6.35343 14.0948 6.81659 13.3572C7.28852 12.6078 7.90025 11.9853 8.65181 11.4898C9.41213 10.9825 10.356 10.729 11.483 10.729C12.9515 10.729 14.3058 11.2361 15.5471 12.2505C16.7883 13.2534 17.7804 14.7692 18.5233 16.7979C19.265 18.8151 19.6365 21.3445 19.6365 24.3876C19.6365 27.3501 19.2743 29.8515 18.5487 31.8919C17.8323 33.9217 16.8541 35.46 15.6128 36.5083C14.3808 37.546 13 38.0649 11.4703 38.0649C10.3871 38.0649 9.46462 37.829 8.7043 37.3558C7.95274 36.8841 7.33662 36.2892 6.85592 35.5756C6.37523 34.8483 6.00828 34.1164 5.75484 33.38H5.50579V37.6327H0ZM5.46644 24.3542C5.46644 25.9335 5.63244 27.3105 5.96456 28.4867C6.29667 29.6613 6.77725 30.5788 7.40653 31.2346C8.03569 31.8813 8.80039 32.2039 9.70053 32.2039C10.6098 32.2039 11.3781 31.8752 12.0079 31.2179C12.6366 30.5499 13.113 29.6279 13.436 28.4517C13.7683 27.2649 13.9344 25.8986 13.9344 24.3542C13.9344 22.8205 13.7729 21.4724 13.4499 20.3084C13.1269 19.1436 12.6504 18.233 12.0206 17.576C11.3919 16.919 10.6179 16.5905 9.70053 16.5905C8.79163 16.5905 8.02265 16.9074 7.39338 17.5414C6.77287 18.1753 6.29667 19.0744 5.96456 20.2384C5.63244 21.4024 5.46644 22.7748 5.46644 24.3542ZM23.3637 37.6327V11.0748H28.947V37.6327H23.3637ZM26.168 7.65135C25.3386 7.65135 24.6257 7.28816 24.0316 6.56192C23.4468 5.82427 23.1537 4.94253 23.1537 3.91655C23.1537 2.90213 23.4468 2.03196 24.0316 1.30572C24.6257 0.568077 25.3386 0.199097 26.168 0.199097C26.9986 0.199097 27.7069 0.568077 28.2918 1.30572C28.8859 2.03196 29.1835 2.90213 29.1835 3.91655C29.1835 4.94253 28.8859 5.82427 28.2918 6.56192C27.7069 7.28816 26.9986 7.65135 26.168 7.65135ZM38.4813 29.99L38.494 21.1544H39.3072L45.7569 11.0748H52.1661L43.5016 24.4226H42.1773L38.4813 29.99ZM33.4206 37.6327V2.22216H39.005V37.6327H33.4206ZM46.0049 37.6327L40.0801 26.0659L43.8027 20.8607L52.5468 37.6327H46.0049ZM63.1747 38.1516C61.1121 38.1516 59.3379 37.5749 57.8521 36.4231C56.3755 35.2576 55.2393 33.6448 54.4444 31.5815C53.6577 29.5183 53.2643 27.1432 53.2643 24.4576C53.2643 21.7371 53.6623 19.351 54.4571 17.2994C55.2612 15.236 56.4021 13.628 57.8786 12.4753C59.3552 11.3111 61.1121 10.729 63.1482 10.729C64.9051 10.729 66.4428 11.1497 67.7625 11.9911C69.0822 12.8327 70.1261 14.0142 70.8956 15.5357C71.665 17.0573 72.0884 18.8439 72.1668 20.8957H66.8973C66.7485 19.5704 66.3563 18.5038 65.7172 17.6969C65.0885 16.8785 64.2625 16.4693 63.2404 16.4693C62.3753 16.4693 61.6185 16.7807 60.9725 17.403C60.3346 18.014 59.8363 18.9073 59.4775 20.0832C59.1199 21.2593 58.9399 22.682 58.9399 24.3542C58.9399 26.0477 59.1153 27.4886 59.4648 28.6769C59.8236 29.8637 60.3254 30.769 60.9725 31.3914C61.6185 32.0137 62.3753 32.3241 63.2404 32.3241C63.8784 32.3241 64.4506 32.1521 64.957 31.8052C65.4726 31.4598 65.8971 30.9592 66.2294 30.3019C66.5697 29.6324 66.7923 28.8321 66.8973 27.8979H72.1668C72.0803 29.9276 71.6604 31.7139 70.9083 33.2583C70.1665 34.792 69.1387 35.9895 67.8282 36.8552C66.5178 37.7195 64.9662 38.1516 63.1747 38.1516ZM75.7429 37.6327V11.0748H81.1566V15.7086H81.3666C81.7334 14.0603 82.3494 12.8153 83.2146 11.9739C84.0798 11.1209 85.0765 10.6945 86.2035 10.6945C86.4827 10.6945 86.7849 10.7174 87.1079 10.7635C87.4309 10.8096 87.7158 10.8731 87.9604 10.9537V17.4895C87.6974 17.3858 87.3352 17.2936 86.8726 17.2128C86.4089 17.1321 85.9855 17.0918 85.6002 17.0918C84.7789 17.0918 84.0452 17.3281 83.398 17.8007C82.7601 18.2617 82.2537 18.9073 81.8776 19.7378C81.5108 20.567 81.3273 21.5241 81.3273 22.6074V37.6327H75.7429ZM96.0124 38.1349C94.7273 38.1349 93.5829 37.8397 92.5782 37.2524C91.5723 36.6529 90.7774 35.7719 90.1914 34.6064C89.6146 33.4318 89.3262 31.968 89.3262 30.2152C89.3262 28.7393 89.5316 27.5007 89.9422 26.498C90.3541 25.4953 90.9124 24.6874 91.6207 24.0773C92.329 23.4656 93.133 23.0046 94.0328 22.6942C94.9418 22.3822 95.8947 22.1631 96.8902 22.0369C98.0611 21.8756 99.0059 21.7249 99.7222 21.588C100.439 21.4374 100.959 21.2183 101.282 20.9307C101.605 20.6416 101.766 20.2156 101.766 19.6511V19.5476C101.766 18.4519 101.505 17.6047 100.981 17.0054C100.465 16.4059 99.7303 16.1063 98.7786 16.1063C97.7727 16.1063 96.9733 16.4003 96.3792 16.988C95.7851 17.5644 95.3917 18.2906 95.1991 19.1666L90.0345 18.6134C90.2964 16.9996 90.812 15.6048 91.5815 14.4291C92.3509 13.2418 93.3418 12.3312 94.5565 11.6972C95.7805 11.0517 97.1959 10.729 98.804 10.729C99.923 10.729 100.993 10.9018 102.016 11.2477C103.047 11.5935 103.96 12.1294 104.755 12.8557C105.559 13.5819 106.194 14.5155 106.656 15.6567C107.12 16.7863 107.351 18.1408 107.351 19.7195V37.6327H102.055V33.9506H101.898C101.575 34.7798 101.142 35.5117 100.6 36.1462C100.058 36.7685 99.4073 37.2584 98.6471 37.616C97.8869 37.9614 97.0079 38.1349 96.0124 38.1349ZM97.6112 33.0514C98.4326 33.0514 99.1581 32.8368 99.788 32.4108C100.417 31.9726 100.91 31.3853 101.269 30.6473C101.627 29.9094 101.807 29.074 101.807 28.1398V25.3219C101.631 25.4725 101.391 25.6095 101.086 25.7373C100.788 25.8529 100.451 25.9625 100.076 26.0659C99.7003 26.1572 99.3243 26.2439 98.9482 26.3246C98.5733 26.3946 98.2318 26.457 97.9261 26.5148C97.2709 26.6426 96.6987 26.8434 96.2085 27.1204C95.7194 27.3973 95.3398 27.7716 95.0687 28.2448C94.7976 28.7058 94.6615 29.281 94.6615 29.9733C94.6615 30.976 94.9372 31.7428 95.4875 32.2723C96.047 32.7912 96.7553 33.0514 97.6112 33.0514ZM122.511 11.0748V16.6077H110.085V11.0748H122.511ZM112.93 37.6327V9.15556C112.93 7.2305 113.213 5.63408 113.781 4.36617C114.358 3.09811 115.144 2.14714 116.141 1.51326C117.137 0.879231 118.268 0.562292 119.536 0.562292C120.392 0.562292 121.174 0.64872 121.882 0.821568C122.599 0.994569 123.132 1.15007 123.481 1.28838L122.486 6.82135C122.267 6.72914 121.995 6.64271 121.672 6.56192C121.358 6.48128 121.035 6.44096 120.702 6.44096C119.881 6.44096 119.309 6.6946 118.986 7.20173C118.662 7.69745 118.5 8.39478 118.5 9.29387V37.6327H112.93ZM136.633 11.0748V16.6077H124.508V11.0748H136.633ZM127.26 4.71187H132.845V29.4712C132.845 30.1513 132.923 30.6823 133.08 31.0627C133.238 31.4309 133.456 31.6911 133.737 31.8402C134.025 31.9908 134.356 32.0654 134.732 32.0654C134.994 32.0654 135.257 32.0365 135.519 31.9787C135.781 31.9102 135.983 31.8585 136.122 31.8235L137 37.3041C136.721 37.4197 136.327 37.5521 135.82 37.7012C135.313 37.864 134.697 37.9614 133.972 37.9964C132.626 38.0649 131.447 37.829 130.433 37.2874C129.428 36.7457 128.646 35.9043 128.086 34.7631C127.527 33.6219 127.251 32.181 127.26 30.4404V4.71187Z" fill="white"/>
</svg>
