<svg width="32" height="32" viewBox="0 0 32 32" fill="none" xmlns="http://www.w3.org/2000/svg">
<g clip-path="url(#clip0_104_110)">
<circle cx="16" cy="16" r="16" fill="white"/>
<path d="M8.85 21C7.5 21 6.35417 20.525 5.4125 19.575C4.47083 18.625 4 17.475 4 16.125C4 14.775 4.47532 13.6292 5.42595 12.6875C6.37657 11.7458 7.52625 11.275 8.875 11.275C10.0583 11.275 11.0958 11.6542 11.9875 12.4125C12.8792 13.1708 13.4167 14.1333 13.6 15.3H14.875L12.825 9.5H11V8H15.7V9.5H14.4L15.05 11.275H20.6L18.825 6.5H16.2V5H18.675C19.075 5 19.4125 5.09167 19.6875 5.275C19.9625 5.45833 20.1667 5.73333 20.3 6.1L22.2 11.275H23.15C24.4918 11.275 25.6356 11.7436 26.5814 12.6809C27.5271 13.6181 28 14.7516 28 16.0814C28 17.4271 27.5312 18.5833 26.5935 19.55C25.6558 20.5167 24.508 21 23.15 21C21.9566 21 20.9083 20.6 20.005 19.8C19.1017 19 18.55 18 18.35 16.8H13.6C13.4167 18 12.8792 19 11.9875 19.8C11.0958 20.6 10.05 21 8.85 21ZM8.85 19.5C9.65 19.5 10.3458 19.2417 10.9375 18.725C11.5292 18.2083 11.925 17.5667 12.125 16.8H9.15V15.3H12.125C11.925 14.55 11.525 13.9417 10.925 13.475C10.325 13.0083 9.64167 12.775 8.875 12.775C7.94167 12.775 7.14583 13.1 6.4875 13.75C5.82917 14.4 5.5 15.1917 5.5 16.125C5.5 17.0625 5.825 17.8594 6.475 18.5156C7.125 19.1719 7.91667 19.5 8.85 19.5ZM16.475 15.3H18.375C18.4417 14.9167 18.5708 14.4917 18.7625 14.025C18.9542 13.5583 19.2167 13.1417 19.55 12.775H15.575L16.475 15.3ZM23.15 19.5C24.0833 19.5 24.875 19.1719 25.525 18.5156C26.175 17.8594 26.5 17.0625 26.5 16.125C26.5 15.1917 26.175 14.4 25.525 13.75C24.875 13.1 24.0833 12.775 23.15 12.775H22.75L23.725 15.6L22.325 16.075L21.25 13.275C20.7667 13.5583 20.4042 13.9583 20.1625 14.475C19.9208 14.9917 19.8 15.5417 19.8 16.125C19.8 17.0625 20.125 17.8594 20.775 18.5156C21.425 19.1719 22.2167 19.5 23.15 19.5ZM16.925 27L11.35 24.175H15.025V22.275L20.7 25.125H16.925V27Z" fill="#E4A30B"/>
</g>
<defs>
<clipPath id="clip0_104_110">
<rect width="32" height="32" fill="white"/>
</clipPath>
</defs>
</svg>
